<?xml version="1.0" encoding="UTF-8" standalone="no"?>
<!-- Created with Inkscape (http://www.inkscape.org/) -->

<svg
   version="1.1"
   id="svg1"
   width="1024"
   height="1024"
   viewBox="0 0 1024 1024"
   sodipodi:docname="LOGO SIMHIT.svg"
   inkscape:version="1.3.2 (091e20e, 2023-11-25, custom)"
   xmlns:inkscape="http://www.inkscape.org/namespaces/inkscape"
   xmlns:sodipodi="http://sodipodi.sourceforge.net/DTD/sodipodi-0.dtd"
   xmlns="http://www.w3.org/2000/svg"
   xmlns:svg="http://www.w3.org/2000/svg">
  <defs
     id="defs1">
    <rect
       x="224.83034"
       y="171.68862"
       width="527.32934"
       height="163.51298"
       id="rect2" />
    <rect
       x="237.09381"
       y="228.91816"
       width="551.85629"
       height="112.41517"
       id="rect1" />
    <rect
       x="224.83034"
       y="171.68862"
       width="527.32934"
       height="163.51298"
       id="rect3" />
  </defs>
  <sodipodi:namedview
     id="namedview1"
     pagecolor="#ffffff"
     bordercolor="#000000"
     borderopacity="0.25"
     inkscape:showpageshadow="2"
     inkscape:pageopacity="0.0"
     inkscape:pagecheckerboard="0"
     inkscape:deskcolor="#d1d1d1"
     showgrid="false"
     inkscape:zoom="0.17297876"
     inkscape:cx="190.77487"
     inkscape:cy="621.46359"
     inkscape:window-width="1366"
     inkscape:window-height="697"
     inkscape:window-x="-8"
     inkscape:window-y="-8"
     inkscape:window-maximized="1"
     inkscape:current-layer="g1" />
  <g
     inkscape:groupmode="layer"
     inkscape:label="Image"
     id="g1">
    <path
       style="fill:#008080"
       d="m 481.99866,887.37817 c -2.67285,-2.84511 -2.85568,-8.02532 -0.36832,-10.43555 0.9933,-0.9625 3.96686,-3.71653 6.60791,-6.12006 l 4.80191,-4.37006 -8.342,-7.62994 c -4.58811,-4.19647 -20.94916,-19.33434 -36.35791,-33.63971 -15.40875,-14.30538 -35.89091,-33.19516 -45.51591,-41.97729 -9.625,-8.78213 -20.425,-18.71353 -24,-22.06977 -3.575,-3.35624 -8.975,-8.31114 -12,-11.01088 -3.025,-2.69974 -12.025,-11.00791 -20,-18.46259 -16.62102,-15.5366 -45.79951,-42.31032 -67.53571,-61.9697 -8.20938,-7.425 -21.25935,-19.35 -28.99995,-26.5 -15.65976,-14.46495 -49.04594,-44.80044 -63.11015,-57.34343 -5.0302,-4.48611 -9.5302,-8.14284 -10,-8.12605 -0.4698,0.0168 -5.12919,3.84862 -10.35419,8.51518 -12.2644,10.95362 -14.57875,11.57789 -19.33007,5.21402 -3.04143,-4.07366 -1.58141,-6.69665 8.83029,-15.86405 l 9.53524,-8.39567 -2.89628,-2.5 c -1.59295,-1.375 -10.60093,-9.68909 -20.01772,-18.47576 -15.42304,-14.39099 -17.12146,-16.30055 -17.12146,-19.25 0,-4.1158 3.0245,-7.27424 6.96576,-7.27424 3.22645,0 9.1386,4.78325 31.34868,25.36278 l 11.81443,10.94709 5.68557,-5.51376 c 3.12706,-3.03256 17.16056,-15.78978 31.18556,-28.34937 14.025,-12.55959 31.575,-28.50013 39,-35.42343 7.425,-6.92329 18.45,-17.0498 24.5,-22.50334 10.98415,-9.90124 20.37847,-18.50598 46.96755,-43.01997 7.75524,-7.15 16.17967,-14.88216 18.72096,-17.18258 4.13347,-3.7417 4.79272,-4.9539 6.25418,-11.5 2.90026,-12.99075 6.50766,-23.03742 13.04029,-36.31742 13.53552,-27.51598 34.07782,-48.22917 61.48008,-61.99153 15.5831,-7.82637 44.52798,-15.50666 64.28694,-17.05802 l 8.75,-0.68701 v -45.44074 c 0,-26.11054 -0.37656,-45.20801 -0.8852,-44.89365 -0.48686,0.3009 -2.80191,5.38995 -5.14455,11.30902 -2.34265,5.91906 -4.95531,11.32443 -5.80593,12.01193 -3.97772,3.21494 -10.16432,0.16185 -10.16432,-5.01609 0,-2.46001 7.13452,-23.71029 17.36422,-51.71965 2.50805,-6.86716 5.33813,-13.05466 6.28907,-13.75 0.95093,-0.69535 2.96787,-1.26426 4.48208,-1.26426 4.98297,0 7.47701,3.57028 12.2247,17.5 2.43696,7.15 7.40287,21.15708 11.03538,31.12685 3.6325,9.96976 6.60455,18.8246 6.60455,19.67742 0,1.91325 -4.64862,5.69573 -7,5.69573 -2.91955,0 -6.73297,-3.77802 -8.32543,-8.24814 -0.83308,-2.33852 -2.43443,-6.72686 -3.55856,-9.75186 l -2.04385,-5.5 -0.0361,44.10704 -0.0361,44.10705 10.25,0.7024 c 15.34509,1.05156 36.87106,4.99842 49.25,9.03015 25.11288,8.17909 49.64532,23.23312 59.99895,36.81761 13.84138,18.1606 24.11564,48.29036 25.23427,74.00075 l 0.5554,12.765 6.63246,6.235 c 3.64785,3.42925 13.81047,12.535 22.58361,20.235 8.77313,7.7 19.78609,17.56357 24.47323,21.91904 13.81329,12.83584 18.08023,16.71673 26.48921,24.09263 4.38192,3.84358 15.65728,13.96333 25.05636,22.48833 9.39909,8.525 23.74312,21.35 31.87563,28.5 8.13252,7.15 18.23215,16.03679 22.44364,19.74843 4.21148,3.71164 7.88224,6.73507 8.15724,6.71873 0.275,-0.0163 6.98616,-6.22244 14.91367,-13.79134 l 14.41367,-13.76164 -3.66367,-3.55811 c -3.94686,-3.83315 -4.4846,-5.32707 -2.22902,-6.19262 0.8606,-0.33024 2.87323,1.04181 5.02989,3.42898 l 3.59525,3.9795 4.90518,-5.03597 c 5.76121,-5.91481 9.5306,-6.63131 13.58049,-2.58142 4.51342,4.51342 3.47777,7.87946 -4.74812,15.4322 -3.96147,3.63729 -13.39375,12.34133 -20.96063,19.3423 l -13.75797,12.72904 9.96063,8.62511 c 8.88577,7.69437 9.96063,8.98373 9.96063,11.94838 0,3.78983 -3.72117,7.46843 -7.55488,7.46843 -1.29766,0 -5.02057,-2.29267 -8.61514,-5.30544 -3.48149,-2.91799 -8.31856,-6.91405 -10.74906,-8.88014 l -4.41908,-3.5747 -18.08092,16.71966 c -9.9445,9.19581 -21.9806,20.27937 -26.74689,24.63013 -4.76628,4.35077 -20.29128,18.68362 -34.5,31.85079 -14.20871,13.16716 -28.30903,26.18391 -31.33403,28.92612 -3.025,2.7422 -9.325,8.62867 -14,13.08105 -4.675,4.45238 -13.225,12.35996 -19,17.5724 -5.775,5.21245 -19.95,18.23254 -31.5,28.93354 -11.55,10.701 -26.4,24.42458 -33,30.49685 -13.17831,12.12458 -19.68557,18.15105 -32.51396,30.11168 -16.64057,15.51494 -47.55341,44.08703 -58.33314,53.9161 l -10.94311,9.97804 6.02071,5.52196 c 3.31139,3.03708 6.53758,6.52522 7.16931,7.75144 2.27281,4.41163 -1.38477,10.27052 -6.41168,10.27052 -1.15126,0 -5.29087,-2.94249 -9.34466,-6.6423 l -7.27778,-6.6423 -4.18284,3.96499 c -10.50097,9.95404 -13.58063,11.18622 -17.50853,7.00516 z m 13.82568,-57.18555 c 0,-9.625 -0.27266,-17.5 -0.60592,-17.5 -0.33325,0 -4.88466,3.9276 -10.11423,8.72801 l -9.50832,8.72801 9.36424,8.73618 c 5.15033,4.8049 9.70173,8.75229 10.11423,8.77199 0.4125,0.0197 0.75,-7.83919 0.75,-17.46419 z m 24.86821,8.75 9.21922,-8.75 -9.29371,-8.18915 c -5.11154,-4.50403 -9.3828,-7.65403 -9.49169,-7 -0.5595,3.36074 -0.80465,32.68915 -0.27323,32.68915 0.3411,0 4.76884,-3.9375 9.83941,-8.75 z m 22.53907,-20.87897 9.69602,-9.12897 -2.44055,-1.87103 c -1.34231,-1.02907 -8.38277,-7.22391 -15.64549,-13.76633 l -13.20493,-11.89529 -5.37757,5.39529 -5.37756,5.3953 -0.2786,7.65941 c -0.27118,7.45551 -0.19905,7.72173 2.70948,10 6.79322,5.32119 18.51192,16.09239 18.51192,17.01516 0,1.6965 1.41427,0.60504 11.40728,-8.80354 z m -58.9885,-1.87103 11.55732,-10 0.012,-6.53131 0.012,-6.5313 -5.97692,-5.91456 -5.97693,-5.91456 -7.77307,7.47283 c -4.27519,4.11006 -11.09217,10.46334 -15.14884,14.11841 l -7.37576,6.64557 8.87576,8.53661 c 4.88167,4.69513 9.18209,8.44249 9.5565,8.32746 0.3744,-0.11504 5.88152,-4.70915 12.23804,-10.20915 z m -19.25157,-23.51104 c 7.88304,-7.15607 14.45328,-13.36753 14.60054,-13.80324 0.14726,-0.43571 -6.7524,-7.19551 -15.33258,-15.02178 l -15.60033,-14.22958 -9.03889,8.28282 c -4.97139,4.55555 -11.89625,10.66863 -15.38858,13.58462 l -6.34969,5.30179 9.7068,8.69821 c 5.33874,4.78401 12.41326,11.27719 15.72116,14.4293 3.3079,3.15211 6.31461,5.73961 6.68157,5.75 0.36697,0.0104 7.11697,-5.83607 15,-12.99214 z m 100.3831,4.86305 c 4.92233,-4.48139 11.97174,-11.03371 15.66535,-14.56071 l 6.71565,-6.41272 -3.69391,-3.18929 c -8.11019,-7.00227 -24.75731,-22.2341 -25.07073,-22.93929 -0.76445,-1.72001 -2.89866,-0.14686 -16.27978,12 -7.72506,7.0125 -14.95448,13.23972 -16.0654,13.83826 -1.85647,1.00024 -1.18785,1.84948 8.26692,10.5 5.65772,5.17646 12.56484,11.53953 15.34918,14.14017 2.78433,2.60063 5.31005,4.73813 5.61272,4.75 0.30267,0.0119 4.57767,-3.64503 9.5,-8.12642 z m -69.93624,-25.57128 c -0.61847,-0.61847 -7.61407,4.68743 -7.61407,5.77498 0,0.45008 1.6875,2.41326 3.75,4.36261 l 3.75,3.54428 0.29839,-6.59958 c 0.16411,-3.62977 0.0812,-6.8168 -0.18432,-7.08229 z m 22.31374,6.1496 c 0.0397,-0.58831 -0.95902,-1.96629 -2.2194,-3.06218 -4.58389,-3.98564 -4.70841,-3.90177 -4.70841,3.17132 v 6.65751 l 3.42781,-2.84849 c 1.88529,-1.56667 3.46029,-3.32984 3.5,-3.91816 z m -27.84885,-8.5803 5.92104,-5.14997 v -7.76471 -7.76471 l -7.75,-0.59389 c -4.2625,-0.32664 -13.51859,-1.32394 -20.56909,-2.21622 -17.09335,-2.16327 -17.59704,-1.60018 -7.1493,7.99251 10.13852,9.30878 22.86951,20.57415 23.29735,20.61531 0.18092,0.0174 2.99342,-2.28584 6.25,-5.11832 z m 34.0486,3.49104 c 0.75484,-0.91241 7.55994,-7.0115 15.12244,-13.55354 7.5625,-6.54203 13.75,-12.29395 13.75,-12.78205 0,-1.89675 -2.29434,-1.99303 -14.18482,-0.59527 -6.77335,0.79623 -15.80268,1.74305 -20.06518,2.10406 l -7.75,0.65637 v 7.63323 7.63324 l 5.21584,5.28144 c 2.86872,2.9048 5.51362,5.28145 5.87756,5.28145 0.36394,0 1.27932,-0.74652 2.03416,-1.65893 z m -94.30723,-12.53262 c 8.07382,-7.25535 14.8364,-13.29957 15.02795,-13.43161 0.19155,-0.13203 -0.48345,-1.36196 -1.5,-2.73317 -1.29322,-1.74441 -3.79381,-2.98678 -8.32671,-4.13695 -3.56314,-0.90411 -11.33169,-3.46284 -17.26345,-5.68608 l -10.78502,-4.04224 -9.52554,8.74382 c -5.23905,4.8091 -9.37361,9.19962 -9.18791,9.75671 0.29946,0.89837 25.75913,24.54707 26.56068,24.67139 0.17618,0.0273 6.92618,-5.88652 15,-13.14187 z m 175.72217,0.19687 13.61657,-12.49467 -3.82953,-3.28143 c -2.10625,-1.80479 -6.76358,-5.71111 -10.34964,-8.68071 l -6.52011,-5.39926 -17.15124,5.77529 c -15.2905,5.14874 -20.30855,7.51304 -20.30855,9.56859 0,0.34979 1.46058,1.84444 3.24574,3.32143 4.03588,3.33919 21.54682,19.22654 24.25426,22.00545 1.1,1.12903 2.32084,1.96891 2.71297,1.86639 0.39214,-0.10252 6.84042,-5.80901 14.32953,-12.68108 z m -211.54956,-24.87273 9.49293,-8.84408 -3.99293,-2.03903 c -2.19612,-1.12147 -7.85834,-5.18344 -12.58273,-9.02661 l -8.58979,-6.98758 -7.91021,6.95188 c -4.35061,3.82353 -8.26334,7.29623 -8.69496,7.7171 -0.72839,0.71027 20.68533,21.10992 22.13215,21.08406 0.35893,-0.006 4.92442,-3.99149 10.14554,-8.85574 z m 238.11655,0.2739 c 5.16478,-4.72643 10.19186,-9.36527 11.17128,-10.30855 1.69714,-1.63449 1.39983,-2.04105 -6.33029,-8.65649 -4.46109,-3.8178 -8.41244,-7.05337 -8.78077,-7.19015 -0.36834,-0.13678 -3.85186,2.35225 -7.74116,5.53118 -3.8893,3.17893 -9.36267,7.25015 -12.16306,9.04716 l -5.09161,3.26727 9.16306,8.39229 c 5.03969,4.61575 9.43733,8.41895 9.77255,8.45154 0.33522,0.0326 4.83522,-3.80782 10,-8.53425 z m -183.10949,7.2005 c 0,-0.21616 -0.69837,-0.66101 -1.55193,-0.98855 -0.88993,-0.3415 -1.29133,-0.17385 -0.94099,0.39301 0.58726,0.95021 2.49292,1.40545 2.49292,0.59554 z m 110.5,-0.60699 c 0.33992,-0.55 -0.0835,-1 -0.94098,-1 -0.85746,0 -1.55902,0.45 -1.55902,1 0,0.55 0.42345,1 0.94099,1 0.51754,0 1.2191,-0.45 1.55901,-1 z m -63.5,-69.00502 v -65.00502 l -10.25,0.55805 c -12.06455,0.65684 -43.88937,3.28169 -51.71333,4.26521 -5.20688,0.65454 -5.50572,0.85106 -6.36654,4.18678 -5.5118,21.35841 -11.45452,34.62017 -24.67068,55.05502 -5.10044,7.88633 -10.10198,16.16267 -11.11453,18.39188 -2.37493,5.22861 -2.37161,11.24271 0.008,15.14564 7.97638,13.08049 41.74053,26.19058 78.10671,30.32761 5.225,0.59439 10.85,1.2381 12.5,1.43045 1.65,0.19235 5.3625,0.41716 8.25,0.49957 l 5.25,0.14983 z m 35,63.92828 c 36.42192,-3.38852 74.35493,-17.03999 80.53011,-28.98147 3.42106,-6.61561 1.7038,-10.77926 -11.90859,-28.87343 C 583.57459,658.6642 578.35861,645.8735 577.132,625.04261 l -0.59767,-10.15 -7.49544,-1.11481 c -11.09187,-1.64971 -37.28918,-3.9581 -48.71455,-4.2925 l -10,-0.29268 -0.25729,64.75 -0.25729,64.75 4.75729,-0.003 c 2.61651,-0.002 9.93229,-0.48487 16.25729,-1.07332 z M 365.32729,713.52953 c 4.39838,-3.9397 8.13572,-7.50569 8.3052,-7.92443 0.34054,-0.8414 -23.37985,-22.41248 -24.64563,-22.41248 -0.43554,0 -4.36278,3.26075 -8.7272,7.24611 l -7.93532,7.24611 12,11.45309 c 6.6,6.2992 12.22633,11.47595 12.50295,11.50389 0.27662,0.0279 4.10162,-3.17259 8.5,-7.11229 z m 295.74705,-4.39211 c 7.0125,-6.34921 12.71974,-11.85919 12.68275,-12.24441 -0.0948,-0.98692 -14.76407,-13.70039 -15.80806,-13.70039 -0.47238,0 -5.53118,4.12699 -11.24178,9.1711 -5.7106,5.04411 -11.50791,10.09395 -12.88291,11.22187 l -2.5,2.05077 8,7.48182 c 4.4,4.115 8.225,7.50014 8.5,7.52253 0.275,0.0224 6.2375,-5.15408 13.25,-11.50329 z m -36.25,-3.9448 c 0.73588,-1.375 1.76481,-2.5 2.28651,-2.5 0.88646,0 10.53015,-8.26759 22.32178,-19.13659 l 5.10829,-4.70859 -17.71465,-16.48754 -17.71465,-16.48753 -9.59468,8.94579 -9.59468,8.94579 5.78857,7.71434 c 13.6899,18.24429 18.02594,26.90218 16.72667,33.39856 -0.6977,3.48849 0.59717,3.6598 2.38684,0.31577 z m -244.34589,-5.75 c 0.0363,-7.79198 3.27355,-15.23437 13.34547,-30.68088 l 7.11932,-10.91833 -4.68816,-4.3214 c -7.98423,-7.35961 -7.97761,-7.35728 -11.79092,-4.14349 -6.2415,5.26022 -32.14083,29.59484 -31.93192,30.00275 0.11434,0.22326 4.42761,4.16289 9.58504,8.75472 7.06919,6.29393 17.12858,15.91379 18.26956,17.47131 0.0344,0.0469 0.0756,-2.72718 0.0916,-6.16468 z m -40.30341,-15.55634 4.8507,-4.96683 -4.3507,-3.94288 c -2.39288,-2.16859 -7.11262,-6.45173 -10.48831,-9.51809 -3.3757,-3.06636 -6.9757,-6.01109 -8,-6.54383 -1.02431,-0.53274 -7.93739,-1.48977 -15.36239,-2.12673 -7.425,-0.63696 -15.3,-1.37556 -17.5,-1.64134 l -4,-0.48323 6.01045,5.76463 c 3.30574,3.17055 12.95538,12.14593 21.44365,19.94529 l 15.43322,14.18065 3.55634,-2.8504 c 1.95599,-1.56772 5.73916,-5.08548 8.40704,-7.81724 z m 349.03173,-0.45886 c 9.86226,-9.10614 29.42279,-26.69099 30.53424,-27.45019 1.39766,-0.9547 -2.30407,-0.81578 -18.04737,0.67728 l -17.6307,1.67207 -11.51733,10.29735 -11.51733,10.29735 8.14803,7.35158 c 4.48142,4.04337 8.32012,7.36692 8.53046,7.38567 0.21033,0.0187 5.38533,-4.58525 11.5,-10.23111 z M 362.66604,662.85461 c 7.51207,-7.06091 15.4583,-14.47927 17.6583,-16.48524 l 4,-3.64722 -6.5,-6.03939 c -10.35782,-9.62384 -9.68514,-9.33802 -17.64497,-7.49735 -14.1477,3.27157 -40.35503,12.09043 -40.35503,13.5796 0,0.35236 4.1625,0.94368 9.25,1.31405 10.66502,0.77642 14.06852,2.49981 14.55653,7.37081 0.45605,4.55197 -2.89271,7.24275 -9.01383,7.24275 h -4.83018 l 7.21375,6.75 c 3.96756,3.7125 7.91349,7.5 8.76874,8.41666 0.85525,0.91667 1.93376,1.70417 2.39669,1.75 0.46293,0.0458 6.98793,-5.69377 14.5,-12.75467 z m 310.04145,-3.93194 c -6.12594,-0.48879 -7.61637,-1.17179 -8.80171,-4.03346 -1.42028,-3.42886 -0.0919,-7.74109 2.65292,-8.61228 2.04624,-0.64945 15.64535,-2.50482 18.71564,-2.55344 5.7624,-0.0912 -9.35017,-5.41597 -32.80317,-11.55781 l -13.85316,-3.62784 -2.64657,2.32739 c -1.45561,1.28006 -4.97788,4.46076 -7.82727,7.06821 l -5.18069,4.74082 13.18043,12.35717 c 7.24924,6.79645 15.18808,14.1771 17.64186,16.40144 l 4.46142,4.04426 8.92173,-8.14226 8.92172,-8.14225 z m -65.99912,-8.28851 8.94727,-8.05846 -8.16565,-7.75243 c -14.6209,-13.88102 -18.35228,-17.13065 -19.67017,-17.13065 -1.74772,0 -0.68436,16.3777 1.55824,24 2.09372,7.11623 6.48398,17 7.55122,17 0.4575,0 4.85809,-3.62631 9.77909,-8.05846 z m -200.01512,-2.21242 c 1.65863,-2.89898 4.34141,-9.31148 5.96173,-14.25 5.27362,-16.07328 5.69722,-15.90222 -8.2975,-3.35077 -6.89322,6.18233 -12.53925,11.49508 -12.54673,11.80612 -0.0109,0.45349 11.0483,10.88485 11.6902,11.02654 0.0971,0.0214 1.53367,-2.33291 3.1923,-5.23189 z M 281.25532,638.33147 c 3.88797,-2.94863 8.28768,-6.13803 9.77715,-7.08757 l 2.70812,-1.72642 -5.57425,-4.8779 -5.57424,-4.87789 -8.84654,8.11273 -8.84654,8.11272 4.21266,3.81173 c 2.31697,2.09645 4.40661,3.83018 4.64364,3.85273 0.23704,0.0226 3.61204,-2.3715 7.5,-5.32013 z m 456.06902,0.36115 c 2.14825,-2.2 3.47707,-4.00625 2.95295,-4.01388 -0.52412,-0.008 -4.50858,-3.15764 -8.85435,-7 -4.34577,-3.84237 -8.17077,-6.96825 -8.5,-6.94642 -0.32923,0.0218 -2.73663,2.00791 -5.34979,4.41349 l -4.75119,4.37379 5.24782,3.22902 c 2.8863,1.77596 7.22655,4.73989 9.645,6.58651 2.41844,1.84662 4.69113,3.35749 5.05042,3.35749 0.35929,0 2.4109,-1.8 4.55914,-4 z M 391.4567,635.92491 c 2.1272,-2.07224 7.18492,-6.79724 11.23938,-10.5 4.05445,-3.70276 7.12173,-6.73229 6.81617,-6.73229 -1.33148,0 -35.18499,7.16375 -35.54237,7.52113 -0.21817,0.21817 1.12233,1.64268 2.9789,3.16558 1.85656,1.5229 4.95056,4.40642 6.87556,6.40783 1.925,2.00141 3.55956,3.69889 3.63236,3.77219 0.0728,0.0733 1.87279,-1.5622 4,-3.63444 z m 234.48186,-2.33124 c 3.23718,-2.80442 5.88578,-5.45193 5.88578,-5.88337 0,-0.97279 -1.72089,-1.46429 -15.5,-4.42685 -20.18957,-4.34085 -19.36359,-4.94388 -7.9931,5.83561 5.49621,5.21052 10.382,9.49615 10.85732,9.52362 0.47531,0.0275 3.51281,-2.24459 6.75,-5.04901 z m -356.04538,-8.50406 c 4.63714,-4.18166 8.55082,-7.91562 8.69706,-8.29769 0.14624,-0.38206 -1.09126,-1.9949 -2.75,-3.58407 -5.0742,-4.8614 -3.29685,-6.35678 2.39522,-2.01523 1.80272,1.375 3.62029,2.5 4.03905,2.5 0.41876,0 4.03415,-3.0375 8.0342,-6.75 4.00005,-3.7125 11.79791,-10.575 17.32858,-15.25 5.53068,-4.675 10.05822,-8.95 10.06122,-9.5 0.003,-0.55 -7.67072,-7.525 -17.05269,-15.5 -9.38197,-7.975 -19.46898,-16.67269 -22.41558,-19.3282 l -5.35745,-4.82821 -12.27422,10.32821 c -6.75082,5.68051 -12.72423,10.41367 -13.27423,10.51813 -0.55,0.10446 -3.66955,2.69196 -6.93234,5.75 -5.56488,5.21566 -8.56766,6.82664 -8.56766,4.59652 0,-0.52995 2.5875,-3.12352 5.75,-5.76349 19.86186,-16.58015 31.25,-26.73597 31.25,-27.86838 0,-0.71654 -1.53421,-2.473 -3.40936,-3.90325 l -3.40937,-2.60045 -8.84063,3.42554 c -16.50673,6.39599 -63.34064,29.05111 -63.34064,30.63998 0,0.37498 14.5125,13.7632 32.25,29.7516 17.7375,15.9884 33.5717,30.46756 35.1871,32.17591 1.6154,1.70835 3.22137,3.10609 3.56884,3.10609 0.34746,0 4.42577,-3.42136 9.0629,-7.60301 z m -5.56884,-22.39699 c -0.33991,-0.55 0.057,-1 0.88197,-1 0.825,0 1.77812,0.45 2.11803,1 0.33992,0.55 -0.057,1 -0.88196,1 -0.825,0 -1.77812,-0.45 -2.11804,-1 z m 517,-4.56367 c 7.15,-6.6875 15.475,-14.3199 18.5,-16.9609 3.025,-2.64101 5.62225,-5.09512 5.77166,-5.45359 0.40772,-0.97823 -45.54372,-23.16376 -59.01959,-28.49488 -11.49727,-4.54838 -15.25527,-5.07407 -12.55062,-1.75567 0.7142,0.87628 6.83996,6.20139 13.6128,11.83357 6.77283,5.63218 12.17283,10.61267 12,11.06774 -0.5017,1.32098 -1.2178,0.84395 -15.4056,-10.26231 -7.41449,-5.80408 -13.87484,-10.4083 -14.35635,-10.23159 -0.48151,0.17672 -8.60018,7.05903 -18.04149,15.29403 -9.44131,8.23501 -18.47269,15.88501 -20.06973,17 -1.59705,1.115 -2.79962,2.30824 -2.6724,2.65166 0.12723,0.34341 6.53132,6.25407 14.23132,13.13481 7.7,6.88073 15.27889,13.86758 16.84197,15.52632 2.77563,2.9455 2.90834,2.9778 5.68544,1.38396 3.572,-2.05004 5.03216,-0.84805 1.97603,1.62666 l -2.2799,1.84614 9.23816,8.16242 9.23815,8.16243 12.15008,-11.18586 c 6.68254,-6.15223 18.00007,-16.65745 25.15007,-23.34494 z m -12.5234,-20.36125 c -5.61185,-3.51642 -8.10003,-6.25733 -7.11993,-7.84316 0.53388,-0.86384 2.25835,0.0228 5.87906,3.02284 4.62483,3.83199 6.82725,6.5156 6.01441,7.32844 -0.16332,0.16332 -2.31141,-0.96534 -4.77354,-2.50812 z m -83.78765,46.41766 c -0.25377,-2.1737 0.21158,-4.45508 1.22385,-6 2.48879,-3.79836 6.29824,-3.24416 13.72514,1.99674 10.22175,7.21312 9.093,7.0829 14.84317,1.71235 l 5.12832,-4.78975 -11.30471,-10.09062 c -6.2176,-5.54984 -14.13645,-12.53911 -17.59747,-15.53171 l -6.29275,-5.44109 -4.20725,4.09901 c -4.34999,4.2381 -17.06785,15.46073 -19.07066,16.82856 -0.74613,0.50957 0.5811,2.33593 3.86341,5.31634 9.30053,8.44507 17.8835,15.40743 18.99377,15.40743 0.67404,0 0.94502,-1.36717 0.69518,-3.50726 z m -385.25704,1.0893 c 2.19636,-2.64645 13.69614,-9.58204 15.88781,-9.58204 3.32029,0 6.18028,3.47071 6.18028,7.5 0,1.925 0.38813,3.5 0.8625,3.5 2.54455,0 23.69218,-19.86678 22.42992,-21.07141 -0.43583,-0.41593 -2.87064,-2.48252 -5.4107,-4.59242 -2.54006,-2.10989 -7.58409,-6.46241 -11.20895,-9.67225 l -6.59067,-5.83608 -17.79105,15.29755 c -9.78507,8.41366 -17.94356,15.39241 -18.12997,15.50834 -0.18641,0.11594 1.57894,1.93327 3.923,4.03853 2.34406,2.10526 4.74658,4.37312 5.33893,5.0397 1.45008,1.6318 3.08592,1.58467 4.5089,-0.12992 z m 366.24503,-6.04116 c -2.20051,-1.98803 -5.15923,-4.52571 -6.57493,-5.63931 l -2.57401,-2.02471 -3.54121,2.70102 c -1.94767,1.48556 -3.28723,2.955 -2.97681,3.26543 0.71604,0.71604 18.87325,5.96958 19.32895,5.59257 0.18641,-0.15422 -1.46148,-1.90697 -3.66199,-3.895 z m -310.61366,-1.71875 c 1.13473,-0.23568 0.51977,-1.3267 -2.29158,-4.06555 l -3.84253,-3.74341 -6.30445,6.361 -6.30446,6.36099 8.59604,-2.29544 c 4.72782,-1.2625 9.29396,-2.44041 10.14698,-2.61759 z m 293.22852,-5.10998 c 2.31451,-2.35832 4.2082,-4.55807 4.2082,-4.88834 0,-0.53521 -24.11784,-22.48981 -28.08391,-25.56492 -3.37749,-2.61876 -8.98891,0.59886 -20.93973,12.00695 -6.2029,5.92121 -11.09764,10.91456 -10.87718,11.09634 0.22045,0.18178 8.27582,1.98836 17.90082,4.01463 9.625,2.02627 20.65,4.5298 24.5,5.56339 3.85,1.0336 7.46881,1.91988 8.0418,1.96953 0.57298,0.0497 2.93548,-1.83927 5.25,-4.19758 z M 385.0629,610.69168 c 10.30621,-2.2188 20.781,-4.31413 23.2773,-4.65629 2.49631,-0.34216 4.75364,-0.96982 5.0163,-1.3948 0.41242,-0.66731 -10.58875,-11.27959 -24.10182,-23.24983 l -4.06966,-3.60502 -15.93034,14.42309 c -8.76168,7.9327 -15.93034,14.61409 -15.93034,14.84753 0,1.26421 10.23235,8.47835 11.5,8.10788 0.825,-0.2411 9.93236,-2.25376 20.23856,-4.47256 z m 296.4134,-28.06717 c -0.0836,-0.31246 -4.13592,-4.21012 -9.0052,-8.66146 l -8.85324,-8.09336 -6.00094,3.8786 c -6.54516,4.23034 -14.31964,7.43509 -22.06836,9.09689 l -4.96779,1.0654 2.87179,2.84906 c 1.57948,1.56698 7.57671,7.06759 13.32718,12.22358 l 10.45539,9.37452 12.19656,-10.58256 c 6.70811,-5.82041 12.12818,-10.83821 12.04461,-11.15067 z m -323.65196,13.38205 c 4.675,-4.21132 11.95912,-10.85889 16.18693,-14.77236 l 7.68692,-7.11541 -8.54375,-7.46309 c -4.69907,-4.10469 -10.02846,-8.71036 -11.8431,-10.23481 l -3.29934,-2.77172 -12.84383,11.17836 c -7.0641,6.14809 -14.4029,12.52891 -16.30844,14.1796 l -3.46462,3.00126 11.46462,10.81379 c 6.30554,5.94759 11.68961,10.81999 11.96461,10.82756 0.275,0.008 4.325,-3.43185 9,-7.64318 z m 61.64408,-10.40797 c -0.59741,-13.34326 -3.42383,-24.15133 -7.32586,-28.01374 -1.75334,-1.73553 -2.19285,-1.47491 -12.31822,7.30466 -5.775,5.00742 -10.58711,9.37411 -10.69358,9.70376 -0.10647,0.32964 2.36853,2.72319 5.5,5.319 3.13147,2.59581 9.74358,8.67081 14.69358,13.5 10.87501,10.60959 10.96581,10.53966 10.14408,-7.81368 z m 37.98455,13.63814 c 9.42075,-0.84926 21.90825,-1.54411 27.75,-1.54411 h 10.62137 V 442.0551 286.41758 l -8.53615,0.69262 c -20.58317,1.67011 -45.46751,8.49903 -62.77326,17.22665 -9.53733,4.80986 -23.10145,14.77419 -31.19985,22.9197 -17.36924,17.4703 -29.08798,39.17856 -35.06497,64.95577 -2.48682,10.72501 -2.78396,13.91871 -2.83584,30.4803 -0.0818,26.09998 3.02587,40.26314 14.00779,63.84096 7.15827,15.36856 16.08075,27.18343 38.11075,50.46505 12.44907,13.15636 15.89722,18.92234 19.3207,32.30803 1.43117,5.59583 1.97083,11.03925 1.97083,19.87925 0,6.69536 0.23095,12.40432 0.51321,12.68658 0.28227,0.28227 2.86977,0.15212 5.75,-0.28922 2.88024,-0.44133 12.94468,-1.49728 22.36542,-2.34654 z m 121.65635,-2.29411 c 1.99802,-7.12308 5.81322,-13.0934 10.35632,-16.20638 4.35736,-2.98572 16.30419,-6.47437 30.77843,-8.98777 25.14906,-4.36704 32.94947,-7.44144 38.5714,-15.2023 4.23234,-5.84257 4.70996,-9.81795 2.13155,-17.74147 -2.4907,-7.654 -2.68876,-12.58216 -0.64753,-16.11208 4.00199,-6.92067 3.99978,-6.90888 1.69373,-9.0573 -3.1029,-2.89079 -2.75198,-6.52286 0.95755,-9.91099 2.70031,-2.46636 3.03735,-3.31052 2.47285,-6.19363 -2.90989,-14.8619 -1.69273,-18.37902 7.93456,-22.92769 7.3508,-3.47309 8.59301,-5.74872 6.04589,-11.07564 -0.877,-1.83411 -7.71089,-11.43475 -15.18641,-21.33475 -17.69385,-23.43235 -18.37102,-24.87166 -18.38355,-39.07379 -0.0128,-14.55054 -2.18422,-26.96054 -7.56189,-43.21794 -6.87108,-20.77222 -13.3324,-30.63626 -27.78283,-42.41405 -12.93742,-10.54462 -39.30082,-22.03161 -60.18063,-26.22174 -9.85638,-1.97796 -30.39676,-4.57248 -36.19955,-4.57248 h -4.29115 l 0.25314,155.25 0.25314,155.25 5.5,0.22505 c 14.87221,0.60853 40.52284,2.55937 49,3.72664 5.225,0.71947 10.21373,1.36216 11.08605,1.42821 1.11239,0.0842 2.06772,-1.59709 3.19893,-5.6299 z m 26.21502,-10.65637 3,-2.62951 -3,0.65984 c -4.09854,0.90146 -9.64311,3.76857 -11.71186,6.05623 -1.81505,2.00712 -4.78814,8.47175 -4.78814,10.41126 0,0.63563 3.0375,-1.77471 6.75,-5.35631 3.7125,-3.58159 8.1,-7.69527 9.75,-9.14151 z m 92.4086,-17.02799 c 5.72472,-4.9861 14.27472,-12.33907 19,-16.33992 4.72527,-4.00086 8.5914,-7.63832 8.5914,-8.08325 0,-0.44494 -1.48868,-2.5045 -3.30819,-4.5768 -2.91385,-3.31869 -5.41711,-4.52004 -21,-10.0782 -27.45253,-9.79185 -25.90456,-9.49257 -29.32115,-5.66874 -3.24711,3.63414 -3.52256,6.08213 -1.37066,12.18127 2.32168,6.58034 1.95542,15.82604 -0.83556,21.09271 l -2.33557,4.40729 9.08557,8.64079 c 4.99706,4.75243 9.53556,8.38197 10.08556,8.06564 0.55,-0.31634 5.68387,-4.65469 11.4086,-9.64079 z m -371.76476,6.14681 c 2.00411,-1.76685 9.32622,-8.1164 16.27135,-14.11012 11.56286,-9.97885 12.49925,-11.0394 11.10617,-12.57874 -1.69549,-1.87349 -2.01508,-4.02359 -0.59808,-4.02359 0.5078,0 2.1953,1.05801 3.75,2.35115 1.5547,1.29313 3.40329,2.15094 4.10797,1.90625 0.70469,-0.2447 1.15469,0.10027 1,0.76659 -0.15468,0.66632 5.21293,5.70736 11.92804,11.20231 l 12.20928,9.99082 10.79072,-9.32748 c 5.93489,-5.13011 10.97762,-9.45337 11.20606,-9.60724 0.22843,-0.15386 -2.47157,-3.31904 -6,-7.03373 -3.52844,-3.71469 -8.37703,-8.93358 -10.77464,-11.59755 l -4.35929,-4.84357 -3.68287,3.59622 c -2.02558,1.97793 -4.0014,3.59623 -4.39071,3.59623 -1.84698,0 -0.34149,-2.80765 3.0178,-5.62803 l 3.72573,-3.12802 -4.55809,-5.37198 c -2.50695,-2.95458 -7.31653,-9.49196 -10.68795,-14.5275 l -6.12986,-9.15552 -11.78773,3.76182 c -34.88193,11.13188 -50.4908,17.19946 -54.78774,21.29745 -1.65,1.57361 -6.97333,6.09901 -11.82963,10.05644 l -8.82962,7.19534 3.82962,3.37302 c 2.1063,1.85516 10.12963,8.68774 17.82963,15.1835 7.7,6.49577 16.025,13.62122 18.5,15.83434 2.475,2.21313 4.725,4.02615 5,4.02895 0.275,0.003 2.13973,-1.44051 4.14384,-3.20736 z m 43.85616,-35.21245 c 0,-1.34354 0.633,-1.68295 2.6382,-1.41459 0.35101,0.047 1.00154,-0.50249 1.44563,-1.22104 0.44408,-0.71855 1.05214,-1.06174 1.35124,-0.76264 0.68122,0.68122 -3.17058,4.89827 -4.47402,4.89827 -0.52858,0 -0.96105,-0.675 -0.96105,-1.5 z m 427,16.12835 c 0,-0.2044 -4.57002,-4.3669 -10.15561,-9.25 -5.58558,-4.88309 -13.51621,-11.94265 -17.62362,-15.6879 -4.1074,-3.74526 -8.06446,-6.58067 -8.79346,-6.30093 -0.78727,0.30211 -1.12574,-0.0118 -0.83359,-0.77315 0.28343,-0.7386 -4.92926,-6.11918 -12.30093,-12.69711 -7.03603,-6.27843 -21.79279,-19.57376 -32.79279,-29.54517 -25.35336,-22.98261 -27.15139,-24.49078 -26.07814,-21.87409 1.57153,3.83155 1.8459,11.43937 0.52734,14.62264 -1.34668,3.25119 -8.96616,8.87736 -12.02253,8.87736 -3.34356,0 -3.93636,2.26914 -2.12349,8.12835 1.0591,3.42304 2.18217,5.37653 2.94482,5.12232 1.60105,-0.53369 5.01793,2.15243 14.39315,11.31487 7.58388,7.41175 7.74502,7.5043 21.5,12.34757 7.62237,2.68391 17.81187,6.51839 22.64334,8.52107 4.83146,2.00268 9.18053,3.39646 9.66459,3.09729 0.48406,-0.29916 1.03104,-0.11454 1.21551,0.41028 0.18448,0.52481 10.19042,5.26426 22.23543,10.5321 12.04501,5.26784 23.07001,10.45199 24.5,11.52034 2.73644,2.0444 3.09998,2.23604 3.09998,1.63416 z m -67.5,-15.62835 c -0.33991,-0.55 -1.29303,-1 -2.11803,-1 -0.825,0 -1.22188,0.45 -0.88197,1 0.33992,0.55 1.29304,1 2.11804,1 0.825,0 1.22188,-0.45 0.88196,-1 z m -489.75,-12.01703 c 6.1875,-2.35864 11.25,-4.57838 11.25,-4.93275 0,-0.35438 -1.77933,-2.3818 -3.95407,-4.50537 l -3.95407,-3.86105 -4.29593,3.57795 c -2.36276,1.96787 -7.89593,7.00222 -12.29593,11.18743 l -8,7.60948 5,-2.39363 c 2.75,-1.31649 10.0625,-4.32342 16.25,-6.68206 z m 43.20025,1.26703 c 4.31669,-3.7125 7.73797,-6.86833 7.60286,-7.01295 -0.13512,-0.14463 -2.67735,0.81087 -5.64939,2.12332 -2.97204,1.31245 -7.99122,3.20045 -11.15372,4.19557 -3.1625,0.99512 -5.75,2.13959 -5.75,2.54327 0,0.85958 5.12851,4.82273 6.30086,4.86911 0.44047,0.0174 4.33269,-3.00582 8.64939,-6.71832 z m -13.29903,-12.84131 c 6.51683,-2.52521 18.82378,-7.00236 27.34878,-9.94921 8.525,-2.94685 17.0855,-5.94326 19.02334,-6.6587 1.93783,-0.71543 6.79749,-4.00078 10.79925,-7.30078 4.00175,-3.3 7.70376,-6.15 8.22667,-6.33334 1.9225,-0.67403 0.87208,2.30632 -1.79926,5.10498 l -2.75,2.88107 3,-0.72485 c 9.97703,-2.41061 24.33501,-7.07829 24.38647,-7.92786 0.0333,-0.55 -1.9651,-7.19806 -4.44092,-14.77345 -4.97229,-15.21402 -7.43068,-28.91967 -7.43965,-41.47655 -0.003,-4.5375 -0.4184,-8.25 -0.92256,-8.25 -0.50417,0 -1.06667,0.34097 -1.25,0.75772 -0.18334,0.41675 -4.60834,4.5542 -9.83334,9.19433 -5.225,4.64013 -25.475,23.11565 -45,41.05671 -19.525,17.94106 -37.29637,34.24071 -39.49193,36.22145 l -3.99194,3.60133 2.9724,2.33423 c 1.63482,1.28383 4.10619,3.33251 5.49194,4.55263 1.38574,1.22012 2.81258,2.23262 3.17075,2.25 0.35817,0.0174 5.98317,-2.03449 12.5,-4.55971 z m 415.08125,-9.69807 c -3.72214,-3.41584 -6.75964,-6.77312 -6.75,-7.46062 0.0346,-2.46942 -1.55112,-1.19115 -1.76763,1.42487 -0.12176,1.47118 -0.90238,3.42737 -1.73471,4.34709 -1.38962,1.53551 -1.00106,1.81227 4.75327,3.38562 3.44663,0.94238 7.3916,2.34524 8.7666,3.11748 4.26342,2.39445 3.72774,1.60518 -3.26753,-4.81444 z M 129.64533,612.66745 c -2.42495,-2.42496 -2.89725,-3.56579 -2.38044,-5.75 0.96108,-4.0618 4.35757,-6.51521 8.0087,-5.78498 3.85293,0.77058 5.34744,2.2936 6.14018,6.25725 0.51338,2.56693 0.14563,3.65875 -1.93223,5.73661 -3.36964,3.36964 -6.13678,3.24055 -9.83621,-0.45888 z m 734.63356,0.57062 c -2.83195,-2.83195 -3.03029,-4.5314 -0.98946,-8.47794 3.22897,-6.24414 11.71975,-4.04804 12.3399,3.19164 0.58477,6.82663 -6.50715,10.12959 -11.35044,5.2863 z M 151.04624,522.44262 c -1.4093,-1.72202 5.06532,-9.2375 7.2394,-8.40323 2.2307,0.856 1.93382,1.71805 -2.03295,5.90323 -4.04139,4.26391 -3.84145,4.1679 -5.20645,2.5 z m 679.2725,-11.75574 c -3.41149,-3.49368 -3.72505,-4.18687 -2.45294,-5.42277 1.2645,-1.22853 2.03891,-0.89708 5.82103,2.49142 2.80125,2.50972 4.15452,4.4504 3.78138,5.42278 -0.94855,2.47188 -3.00149,1.75648 -7.14947,-2.49143 z m -663.06232,-5.10416 c -1.09854,-1.77749 7.82433,-10.11268 9.95175,-9.29631 1.51029,0.57956 1.06518,1.39691 -3.01856,5.543 -5.04619,5.12323 -5.82572,5.54523 -6.93319,3.75331 z M 809.681,490.80696 c -4.05044,-3.7456 -5.07802,-5.23957 -4.21401,-6.12657 1.49513,-1.53493 3.74543,-0.29388 8.65341,4.7724 3.20357,3.30689 3.5714,4.10494 2.35666,5.11309 -1.17056,0.97148 -2.4399,0.2694 -6.79606,-3.75892 z m -623.78319,-2.52583 c -1.05077,-1.26609 -0.51578,-2.29255 3.28381,-6.30051 4.09003,-4.31432 4.69271,-4.63598 6.09186,-3.25134 1.4013,1.38677 1.081,2.00133 -3.28382,6.30051 -4.18286,4.11996 -5.00625,4.55942 -6.09185,3.25134 z m 601.9306,-18.08437 c -3.2752,-3.33719 -4.12166,-4.78655 -3.28442,-5.62379 1.7177,-1.71769 11.70107,6.90779 10.15352,8.77248 -1.63273,1.96731 -2.02426,1.78784 -6.8691,-3.14869 z m -583.95283,0.0576 c -0.9711,-1.1701 -0.41201,-2.14898 2.99855,-5.25 5.10751,-4.64397 5.77553,-4.93054 6.58375,-2.82434 0.42561,1.10911 -0.629,2.94773 -3.20242,5.58315 -4.27793,4.381 -4.68089,4.53835 -6.37988,2.49119 z m 562.96313,-20.04709 c -3.44433,-3.50952 -4.15672,-4.77229 -3.22045,-5.70855 0.93626,-0.93626 2.02755,-0.43946 4.93336,2.24585 4.58309,4.23533 5.3219,5.18956 4.94397,6.38556 -0.67353,2.13146 -2.471,1.34224 -6.65688,-2.92286 z m -544.82038,2.27934 c -0.94136,-0.94136 -0.28121,-2.14833 3.00821,-5.5 4.27909,-4.36008 6.13878,-5.16932 7.35545,-3.20071 0.60513,0.97912 -7.11413,9.90673 -8.56585,9.90673 -0.32549,0 -1.1345,-0.54271 -1.79781,-1.20602 z m 18.24687,-17.88967 c -0.37244,-0.60263 1.497,-3.30306 4.15433,-6.00095 4.29162,-4.35714 4.99887,-4.73788 6.32937,-3.40738 1.33051,1.33051 1.00405,2.00106 -2.92155,6.00095 -4.47359,4.55827 -6.33305,5.3961 -7.56215,3.40738 z m 505.14729,-3.81405 c -3.58074,-3.667 -4.07097,-6.09026 -1.23208,-6.09026 1.90013,0 8.96311,7.67455 8.19972,8.90973 -1.19471,1.93309 -3.06649,1.17567 -6.96764,-2.81947 z M 260.07434,416.96256 c -2.02907,-0.70873 -1.48086,-1.95361 2.77018,-6.29053 2.97546,-3.03556 4.53467,-3.93809 6,-3.47301 1.0889,0.34561 1.97982,1.00615 1.97982,1.46787 0,1.46321 -9.4447,8.7516 -10.75,8.29567 z m 465.90969,-4.60723 c -3.5305,-3.59732 -4.01712,-4.53615 -2.85227,-5.50288 2.06394,-1.71292 11.29292,6.41188 9.60014,8.45156 -1.66577,2.00712 -2.04806,1.84007 -6.74787,-2.94868 z M 279.01658,397.48485 c -0.94369,-0.94369 -0.1757,-2.25559 3.51241,-6 4.54195,-4.61129 8.29535,-6.19704 8.29535,-3.50464 0,1.20257 -8.95228,10.71241 -10.08434,10.71241 -0.28361,0 -1.05915,-0.5435 -1.72342,-1.20777 z m 427.36032,-4.73887 c -4.42607,-4.49365 -5.2251,-7.05336 -2.20175,-7.05336 0.67803,0 3.09878,1.9125 5.37944,4.25 3.56978,3.65873 3.9703,4.48757 2.87892,5.95767 -1.14751,1.54571 -1.7219,1.24657 -6.05661,-3.15431 z M 300.83566,377.20625 c -1.16262,-1.40087 -0.69771,-2.26333 3.53844,-6.56415 4.35346,-4.41991 5.03931,-4.78899 6.38977,-3.43852 1.35047,1.35046 0.97067,2.05503 -3.53844,6.56414 -4.51491,4.51492 -5.19342,4.88004 -6.38977,3.43853 z m 385.73518,-3.4448 c -4.18922,-4.24617 -4.56761,-4.97241 -3.18749,-6.1178 1.3386,-1.11094 2.24322,-0.62249 6.22907,3.36336 4.10039,4.10039 4.485,4.83859 3.18749,6.11781 -1.29459,1.27634 -2.05857,0.86383 -6.22907,-3.36337 z m -19.58681,-18.40612 c -3.68525,-3.755 -4.05395,-4.50557 -2.74634,-5.5908 1.26134,-1.04682 2.2473,-0.56281 5.97953,2.9353 2.62874,2.46386 4.24759,4.76616 3.93114,5.5908 -0.89992,2.34515 -2.70965,1.60369 -7.16433,-2.9353 z m -345.93925,2.08729 c -1.43467,-1.75055 6.9519,-11.00484 9.19347,-10.14467 2.23962,0.85943 2.06702,1.31852 -2.49817,6.64467 -4.34519,5.06949 -5.08993,5.45881 -6.6953,3.5 z m 327.44146,-20.58564 c -4.26205,-4.32711 -4.59329,-4.97641 -3.14989,-6.17432 1.40025,-1.16211 2.21722,-0.7345 6.19351,3.24179 3.04122,3.04122 4.37495,5.11609 3.96887,6.17433 -0.93092,2.42594 -1.84719,2.00236 -7.01249,-3.2418 z m -306.31682,0.29251 c -0.32568,-0.84872 -0.41569,-1.63622 -0.20001,-1.75 0.21568,-0.11378 2.48791,-2.18032 5.0494,-4.59231 3.3052,-3.11231 5.1662,-4.19014 6.41039,-3.7127 1.47224,0.56495 0.88874,1.54802 -3.6417,6.13544 -5.77877,5.85146 -6.69571,6.32323 -7.61808,3.91957 z m 284.34477,-22.0706 c -5.02142,-3.91215 -5.14401,-4.11993 -3.74013,-6.33915 0.74391,-1.17596 1.86373,-0.60419 5.8755,3 2.72603,2.44908 4.86493,4.87475 4.7531,5.39038 -0.4403,2.03025 -2.39795,1.4473 -6.88847,-2.05123 z m -262.42261,1.80005 c -0.85822,-0.54514 0.58207,-2.57894 4.74061,-6.69408 4.69329,-4.64432 6.23424,-5.65016 7.19073,-4.69367 0.95649,0.95649 0.0551,2.39429 -4.20645,6.7094 -5.77468,5.84732 -5.83094,5.88139 -7.72489,4.67835 z m 21.17362,-20.28201 c -0.37244,-0.60263 1.46251,-3.26803 4.07767,-5.92312 4.07918,-4.14146 5.01745,-4.66342 6.60297,-3.67324 1.70492,1.06474 1.48414,1.52373 -2.84909,5.92311 -4.73863,4.81097 -6.59133,5.67995 -7.83155,3.67325 z m 218.70079,-4.72377 c -4.59613,-4.0793 -5.14474,-4.93309 -3.85665,-6.0021 1.25235,-1.03936 2.37803,-0.44051 6.77932,3.60648 3.22853,2.96864 4.9942,5.31138 4.54764,6.03393 -1.10293,1.78458 -1.67336,1.50676 -7.47031,-3.63831 z M 405.8346,278.20498 c -1.12,-1.34952 -0.88446,-2.03725 1.58729,-4.63457 3.9775,-4.17957 5.94316,-5.13614 7.2697,-3.53775 0.81654,0.98387 0.0343,2.32162 -3.23228,5.5275 -3.82876,3.75764 -4.45627,4.0527 -5.62471,2.64482 z m 174.77707,-9.26236 c -3.64825,-3.73676 -4.36763,-4.99318 -3.37238,-5.88999 0.97439,-0.87802 2.49095,-0.0592 6.59956,3.56318 3.2981,2.90779 5.05445,5.15621 4.60096,5.88998 -1.2997,2.10296 -3.09326,1.28658 -7.82814,-3.56317 z m -157.78733,-7.23774 c -1.23896,-0.79054 -0.77113,-1.68821 2.68834,-5.15831 3.62469,-3.63583 4.40468,-4.02164 5.79605,-2.86691 1.44204,1.19679 1.22137,1.72997 -2.14128,5.17363 -4.10749,4.20645 -4.17335,4.23606 -6.34311,2.85159 z m 136.90094,-13.82871 c -4.96893,-4.61703 -5.1623,-4.97331 -3.2537,-5.99476 1.75301,-0.93818 2.67059,-0.43481 6.7415,3.69824 3.99218,4.05313 4.48939,4.96922 3.2537,5.99476 -1.19588,0.99249 -2.41014,0.32637 -6.7415,-3.69824 z M 440.0682,244.86354 c -0.92017,-0.5835 -0.29476,-1.91972 2.33822,-4.99577 4.55125,-5.31712 6.81653,-6.60472 8.35609,-4.74966 0.91208,1.099 0.19822,2.27701 -3.47174,5.72899 -5.27781,4.96432 -5.51756,5.09765 -7.22257,4.01644 z m 96.89366,-19.19762 c -4.20866,-3.80559 -5.06136,-6.9733 -1.87711,-6.9733 1.97158,0 10.08008,8.64006 9.29724,9.90672 -1.146,1.85428 -2.88611,1.16636 -7.42013,-2.93342 z m -77.00476,-0.31334 c -0.81695,-0.98436 -0.008,-2.34739 3.34765,-5.64073 3.80814,-3.73741 4.64656,-4.15875 6.01519,-3.02289 1.42237,1.18046 1.24258,1.68138 -1.70265,4.74382 -4.39205,4.56684 -6.30907,5.5478 -7.66019,3.9198 z"
       id="path1" />
    <text
       xml:space="preserve"
       id="text1"
       style="white-space:pre;shape-inside:url(#rect1);display:inline;fill:#000000;fill-opacity:1" />
    <text
       xml:space="preserve"
       id="text2"
       style="font-size:96px;white-space:pre;shape-inside:url(#rect2);display:inline;fill:#000000;fill-opacity:1"
       transform="translate(2.0439122,20.439122)"><tspan
         x="224.83008"
         y="259.27316"
         id="tspan1">  SIM HIT</tspan></text>
    <path
       style="fill:#000000"
       d="m -2391.1865,829.5676 c -2.6729,-2.84511 -2.8557,-8.02532 -0.3683,-10.43555 0.9933,-0.9625 3.9668,-3.71653 6.6079,-6.12006 l 4.8019,-4.37006 -8.342,-7.62994 c -4.5881,-4.19647 -20.9492,-19.33434 -36.3579,-33.63971 -15.4088,-14.30538 -35.8909,-33.19516 -45.5159,-41.97729 -9.625,-8.78213 -20.425,-18.71353 -24,-22.06977 -3.575,-3.35624 -8.975,-8.31114 -12,-11.01088 -3.025,-2.69974 -12.025,-11.00791 -20,-18.46259 -16.6211,-15.5366 -45.7995,-42.31032 -67.5357,-61.9697 -8.2094,-7.425 -21.2594,-19.35 -29,-26.5 -15.6598,-14.46495 -49.0459,-44.80044 -63.1101,-57.34343 -5.0302,-4.48611 -9.5302,-8.14284 -10,-8.12605 -0.4698,0.0168 -5.1292,3.84862 -10.3542,8.51518 -12.2644,10.95362 -14.5788,11.57789 -19.3301,5.21402 -3.0414,-4.07366 -1.5814,-6.69665 8.8303,-15.86405 l 9.5352,-8.39567 -2.8963,-2.5 c -1.5929,-1.375 -10.6009,-9.68909 -20.0177,-18.47576 -15.423,-14.39099 -17.1214,-16.30055 -17.1214,-19.25 0,-4.1158 3.0245,-7.27424 6.9657,-7.27424 3.2265,0 9.1386,4.78325 31.3487,25.36278 l 11.8144,10.94709 5.6856,-5.51376 c 3.1271,-3.03256 17.1606,-15.78978 31.1856,-28.34937 14.025,-12.55959 31.575,-28.50013 39,-35.42343 7.425,-6.92329 18.45,-17.0498 24.5,-22.50334 10.9841,-9.90124 20.3784,-18.50598 46.9675,-43.01997 7.7553,-7.15 16.1797,-14.88216 18.721,-17.18258 4.1334,-3.7417 4.7927,-4.9539 6.2542,-11.5 2.9002,-12.99075 6.5076,-23.03742 13.0402,-36.31742 13.5356,-27.51598 34.0779,-48.22917 61.4801,-61.99153 15.5831,-7.82637 44.528,-15.50666 64.287,-17.05802 l 8.75,-0.68701 v -45.44074 c 0,-26.11054 -0.3766,-45.20801 -0.8852,-44.89365 -0.4869,0.3009 -2.8019,5.38995 -5.1446,11.30902 -2.3426,5.91906 -4.9553,11.32443 -5.8059,12.01193 -3.9777,3.21494 -10.1643,0.16185 -10.1643,-5.01609 0,-2.46001 7.1345,-23.71029 17.3642,-51.71965 2.508,-6.86716 5.3381,-13.05466 6.2891,-13.75 0.9509,-0.69535 2.9678,-1.26426 4.482,-1.26426 4.983,0 7.477,3.57028 12.2247,17.5 2.437,7.15 7.4029,21.15708 11.0354,31.12685 3.6325,9.96976 6.6046,18.8246 6.6046,19.67742 0,1.91325 -4.6487,5.69573 -7,5.69573 -2.9196,0 -6.733,-3.77802 -8.3255,-8.24814 -0.833,-2.33852 -2.4344,-6.72686 -3.5585,-9.75186 l -2.0439,-5.5 -0.036,44.10704 -0.036,44.10705 10.25,0.7024 c 15.3451,1.05156 36.8711,4.99842 49.25,9.03015 25.1129,8.17909 49.6453,23.23312 59.999,36.81761 13.8414,18.1606 24.1156,48.29036 25.2342,74.00075 l 0.5554,12.765 6.6325,6.235 c 3.6479,3.42925 13.8105,12.535 22.5836,20.235 8.7731,7.7 19.7861,17.56357 24.4732,21.91904 13.8133,12.83584 18.0803,16.71673 26.4893,24.09263 4.3819,3.84358 15.6572,13.96333 25.0563,22.48833 9.3991,8.525 23.7431,21.35 31.8756,28.5 8.1326,7.15 18.2322,16.03679 22.4437,19.74843 4.2115,3.71164 7.8822,6.73507 8.1572,6.71873 0.275,-0.0163 6.9862,-6.22244 14.9137,-13.79134 l 14.4137,-13.76164 -3.6637,-3.55811 c -3.9469,-3.83315 -4.4846,-5.32707 -2.229,-6.19262 0.8606,-0.33024 2.8732,1.04181 5.0299,3.42898 l 3.5952,3.9795 4.9052,-5.03597 c 5.7612,-5.91481 9.5306,-6.63131 13.5805,-2.58142 4.5134,4.51342 3.4778,7.87946 -4.7481,15.4322 -3.9615,3.63729 -13.3938,12.34133 -20.9607,19.3423 l -13.7579,12.72904 9.9606,8.62511 c 8.8858,7.69437 9.9606,8.98373 9.9606,11.94838 0,3.78983 -3.7211,7.46843 -7.5549,7.46843 -1.2976,0 -5.0205,-2.29267 -8.6151,-5.30544 -3.4815,-2.91799 -8.3186,-6.91405 -10.7491,-8.88014 l -4.419,-3.5747 -18.081,16.71966 c -9.9445,9.19581 -21.9806,20.27937 -26.7468,24.63013 -4.7663,4.35077 -20.2913,18.68362 -34.5,31.85079 -14.2088,13.16716 -28.3091,26.18391 -31.3341,28.92612 -3.025,2.7422 -9.325,8.62867 -14,13.08105 -4.675,4.45238 -13.225,12.35996 -19,17.5724 -5.775,5.21245 -19.95,18.23254 -31.5,28.93354 -11.55,10.701 -26.4,24.42458 -33,30.49685 -13.1783,12.12458 -19.6855,18.15105 -32.5139,30.11168 -16.6406,15.51494 -47.5534,44.08703 -58.3332,53.9161 l -10.9431,9.97804 6.0207,5.52196 c 3.3114,3.03708 6.5376,6.52522 7.1693,7.75144 2.2728,4.41163 -1.3847,10.27052 -6.4116,10.27052 -1.1513,0 -5.2909,-2.94249 -9.3447,-6.6423 l -7.2778,-6.6423 -4.1828,3.96499 c -10.501,9.95404 -13.5807,11.18622 -17.5086,7.00516 z m 13.8257,-57.18555 c 0,-9.625 -0.2727,-17.5 -0.606,-17.5 -0.3332,0 -4.8846,3.9276 -10.1142,8.72801 l -9.5083,8.72801 9.3642,8.73618 c 5.1504,4.8049 9.7018,8.75229 10.1143,8.77199 0.4125,0.0197 0.75,-7.83919 0.75,-17.46419 z m 24.8682,8.75 9.2192,-8.75 -9.2937,-8.18915 c -5.1116,-4.50403 -9.3828,-7.65403 -9.4917,-7 -0.5595,3.36074 -0.8047,32.68915 -0.2732,32.68915 0.3411,0 4.7688,-3.9375 9.8394,-8.75 z m 22.539,-20.87897 9.6961,-9.12897 -2.4406,-1.87103 c -1.3423,-1.02907 -8.3828,-7.22391 -15.6455,-13.76633 l -13.2049,-11.89529 -5.3776,5.39529 -5.3775,5.3953 -0.2786,7.65941 c -0.2712,7.45551 -0.1991,7.72173 2.7094,10 6.7933,5.32119 18.512,16.09239 18.512,17.01516 0,1.6965 1.4142,0.60504 11.4072,-8.80354 z m -58.9885,-1.87103 11.5574,-10 0.012,-6.53131 0.012,-6.5313 -5.977,-5.91456 -5.9769,-5.91456 -7.7731,7.47283 c -4.2751,4.11006 -11.0921,10.46334 -15.1488,14.11841 l -7.3758,6.64557 8.8758,8.53661 c 4.8817,4.69513 9.1821,8.44249 9.5565,8.32746 0.3744,-0.11504 5.8815,-4.70915 12.238,-10.20915 z m -19.2515,-23.51104 c 7.883,-7.15607 14.4533,-13.36753 14.6005,-13.80324 0.1473,-0.43571 -6.7524,-7.19551 -15.3326,-15.02178 l -15.6003,-14.22958 -9.0389,8.28282 c -4.9714,4.55555 -11.8962,10.66863 -15.3886,13.58462 l -6.3497,5.30179 9.7068,8.69821 c 5.3388,4.78401 12.4133,11.27719 15.7212,14.4293 3.3079,3.15211 6.3146,5.73961 6.6816,5.75 0.3669,0.0104 7.1169,-5.83607 15,-12.99214 z m 100.3831,4.86305 c 4.9223,-4.48139 11.9717,-11.03371 15.6653,-14.56071 l 6.7157,-6.41272 -3.6939,-3.18929 c -8.1102,-7.00227 -24.7573,-22.2341 -25.0708,-22.93929 -0.7644,-1.72001 -2.8986,-0.14686 -16.2797,12 -7.7251,7.0125 -14.9545,13.23972 -16.0654,13.83826 -1.8565,1.00024 -1.1879,1.84948 8.2669,10.5 5.6577,5.17646 12.5648,11.53953 15.3492,14.14017 2.7843,2.60063 5.31,4.73813 5.6127,4.75 0.3026,0.0119 4.5776,-3.64503 9.5,-8.12642 z m -69.9363,-25.57128 c -0.6184,-0.61847 -7.614,4.68743 -7.614,5.77498 0,0.45008 1.6875,2.41326 3.75,4.36261 l 3.75,3.54428 0.2984,-6.59958 c 0.1641,-3.62977 0.081,-6.8168 -0.1844,-7.08229 z m 22.3138,6.1496 c 0.04,-0.58831 -0.959,-1.96629 -2.2194,-3.06218 -4.5839,-3.98564 -4.7084,-3.90177 -4.7084,3.17132 v 6.65751 l 3.4278,-2.84849 c 1.8853,-1.56667 3.4603,-3.32984 3.5,-3.91816 z m -27.8489,-8.5803 5.9211,-5.14997 v -7.76471 -7.76471 l -7.75,-0.59389 c -4.2625,-0.32664 -13.5186,-1.32394 -20.5691,-2.21622 -17.0934,-2.16327 -17.5971,-1.60018 -7.1493,7.99251 10.1385,9.30878 22.8695,20.57415 23.2973,20.61531 0.1809,0.0174 2.9934,-2.28584 6.25,-5.11832 z m 34.0486,3.49104 c 0.7549,-0.91241 7.56,-7.0115 15.1225,-13.55354 7.5625,-6.54203 13.75,-12.29395 13.75,-12.78205 0,-1.89675 -2.2944,-1.99303 -14.1849,-0.59527 -6.7733,0.79623 -15.8026,1.74305 -20.0651,2.10406 l -7.75,0.65637 v 7.63323 7.63324 l 5.2158,5.28144 c 2.8687,2.9048 5.5136,5.28145 5.8776,5.28145 0.3639,0 1.2793,-0.74652 2.0341,-1.65893 z m -94.3072,-12.53262 c 8.0738,-7.25535 14.8364,-13.29957 15.0279,-13.43161 0.1916,-0.13203 -0.4834,-1.36196 -1.5,-2.73317 -1.2932,-1.74441 -3.7938,-2.98678 -8.3267,-4.13695 -3.5631,-0.90411 -11.3317,-3.46284 -17.2634,-5.68608 l -10.785,-4.04224 -9.5256,8.74382 c -5.239,4.8091 -9.3736,9.19962 -9.1879,9.75671 0.2995,0.89837 25.7591,24.54707 26.5607,24.67139 0.1762,0.0273 6.9262,-5.88652 15,-13.14187 z m 175.7222,0.19687 13.6165,-12.49467 -3.8295,-3.28143 c -2.1062,-1.80479 -6.7636,-5.71111 -10.3496,-8.68071 l -6.5201,-5.39926 -17.1513,5.77529 c -15.2905,5.14874 -20.3085,7.51304 -20.3085,9.56859 0,0.34979 1.4605,1.84444 3.2457,3.32143 4.0359,3.33919 21.5468,19.22654 24.2543,22.00545 1.1,1.12903 2.3208,1.96891 2.7129,1.86639 0.3922,-0.10252 6.8405,-5.80901 14.3296,-12.68108 z m -211.5496,-24.87273 9.4929,-8.84408 -3.9929,-2.03903 c -2.1961,-1.12147 -7.8583,-5.18344 -12.5827,-9.02661 l -8.5898,-6.98758 -7.9102,6.95188 c -4.3506,3.82353 -8.2634,7.29623 -8.695,7.7171 -0.7284,0.71027 20.6853,21.10992 22.1322,21.08406 0.3589,-0.006 4.9244,-3.99149 10.1455,-8.85574 z m 238.1166,0.2739 c 5.1647,-4.72643 10.1918,-9.36527 11.1712,-10.30855 1.6972,-1.63449 1.3999,-2.04105 -6.3303,-8.65649 -4.461,-3.8178 -8.4124,-7.05337 -8.7807,-7.19015 -0.3684,-0.13678 -3.8519,2.35225 -7.7412,5.53118 -3.8893,3.17893 -9.3627,7.25015 -12.163,9.04716 l -5.0917,3.26727 9.1631,8.39229 c 5.0397,4.61575 9.4373,8.41895 9.7726,8.45154 0.3352,0.0326 4.8352,-3.80782 10,-8.53425 z m -183.1095,7.2005 c 0,-0.21616 -0.6984,-0.66101 -1.552,-0.98855 -0.8899,-0.3415 -1.2913,-0.17385 -0.941,0.39301 0.5873,0.95021 2.493,1.40545 2.493,0.59554 z m 110.5,-0.60699 c 0.3399,-0.55 -0.083,-1 -0.941,-1 -0.8575,0 -1.559,0.45 -1.559,1 0,0.55 0.4234,1 0.941,1 0.5175,0 1.2191,-0.45 1.559,-1 z m -63.5,-69.00502 v -65.00502 l -10.25,0.55805 c -12.0646,0.65684 -43.8894,3.28169 -51.7134,4.26521 -5.2068,0.65454 -5.5057,0.85106 -6.3665,4.18678 -5.5118,21.35841 -11.4545,34.62017 -24.6707,55.05502 -5.1004,7.88633 -10.102,16.16267 -11.1145,18.39188 -2.3749,5.22861 -2.3716,11.24271 0.01,15.14564 7.9764,13.08049 41.7405,26.19058 78.1067,30.32761 5.225,0.59439 10.85,1.2381 12.5,1.43045 1.65,0.19235 5.3625,0.41716 8.25,0.49957 l 5.25,0.14983 z m 35,63.92828 c 36.4219,-3.38852 74.3549,-17.03999 80.5301,-28.98147 3.421,-6.61561 1.7038,-10.77926 -11.9086,-28.87343 -15.8713,-21.09678 -21.0873,-33.88748 -22.3139,-54.71837 l -0.5976,-10.15 -7.4955,-1.11481 c -11.0919,-1.64971 -37.2892,-3.9581 -48.7145,-4.2925 l -10,-0.29268 -0.2573,64.75 -0.2573,64.75 4.7573,-0.003 c 2.6165,-0.002 9.9323,-0.48487 16.2573,-1.07332 z m -165.4971,-24.08635 c 4.3984,-3.9397 8.1357,-7.50569 8.3052,-7.92443 0.3406,-0.8414 -23.3798,-22.41248 -24.6456,-22.41248 -0.4356,0 -4.3628,3.26075 -8.7272,7.24611 l -7.9353,7.24611 12,11.45309 c 6.6,6.2992 12.2263,11.47595 12.5029,11.50389 0.2766,0.0279 4.1016,-3.17259 8.5,-7.11229 z m 295.7471,-4.39211 c 7.0125,-6.34921 12.7197,-11.85919 12.6827,-12.24441 -0.095,-0.98692 -14.7641,-13.70039 -15.808,-13.70039 -0.4724,0 -5.5312,4.12699 -11.2418,9.1711 -5.7106,5.04411 -11.5079,10.09395 -12.8829,11.22187 l -2.5,2.05077 8,7.48182 c 4.4,4.115 8.225,7.50014 8.5,7.52253 0.275,0.0224 6.2375,-5.15408 13.25,-11.50329 z m -36.25,-3.9448 c 0.7358,-1.375 1.7648,-2.5 2.2865,-2.5 0.8864,0 10.5301,-8.26759 22.3218,-19.13659 l 5.1082,-4.70859 -17.7146,-16.48754 -17.7147,-16.48753 -9.5946,8.94579 -9.5947,8.94579 5.7886,7.71434 c 13.6899,18.24429 18.0259,26.90218 16.7266,33.39856 -0.6977,3.48849 0.5972,3.6598 2.3869,0.31577 z m -244.3459,-5.75 c 0.036,-7.79198 3.2735,-15.23437 13.3454,-30.68088 l 7.1194,-10.91833 -4.6882,-4.3214 c -7.9842,-7.35961 -7.9776,-7.35728 -11.7909,-4.14349 -6.2415,5.26022 -32.1408,29.59484 -31.9319,30.00275 0.1143,0.22326 4.4276,4.16289 9.585,8.75472 7.0692,6.29393 17.1286,15.91379 18.2696,17.47131 0.034,0.0469 0.076,-2.72718 0.092,-6.16468 z m -40.3034,-15.55634 4.8507,-4.96683 -4.3507,-3.94288 c -2.3929,-2.16859 -7.1127,-6.45173 -10.4883,-9.51809 -3.3757,-3.06636 -6.9757,-6.01109 -8,-6.54383 -1.0244,-0.53274 -7.9374,-1.48977 -15.3624,-2.12673 -7.425,-0.63696 -15.3,-1.37556 -17.5,-1.64134 l -4,-0.48323 6.0104,5.76463 c 3.3058,3.17055 12.9554,12.14593 21.4437,19.94529 l 15.4332,14.18065 3.5563,-2.8504 c 1.956,-1.56772 5.7392,-5.08548 8.4071,-7.81724 z m 349.0317,-0.45886 c 9.8623,-9.10614 29.4228,-26.69099 30.5342,-27.45019 1.3977,-0.9547 -2.304,-0.81578 -18.0473,0.67728 l -17.6307,1.67207 -11.5174,10.29735 -11.5173,10.29735 8.148,7.35158 c 4.4815,4.04337 8.3202,7.36692 8.5305,7.38567 0.2103,0.0187 5.3853,-4.58525 11.5,-10.23111 z m -326.5407,-20.57281 c 7.512,-7.06091 15.4583,-14.47927 17.6583,-16.48524 l 4,-3.64722 -6.5,-6.03939 c -10.3579,-9.62384 -9.6852,-9.33802 -17.645,-7.49735 -14.1477,3.27157 -40.355,12.09043 -40.355,13.5796 0,0.35236 4.1625,0.94368 9.25,1.31405 10.665,0.77642 14.0685,2.49981 14.5565,7.37081 0.456,4.55197 -2.8927,7.24275 -9.0138,7.24275 h -4.8302 l 7.2137,6.75 c 3.9676,3.7125 7.9135,7.5 8.7688,8.41666 0.8552,0.91667 1.9337,1.70417 2.3967,1.75 0.4629,0.0458 6.9879,-5.69377 14.5,-12.75467 z m 310.0414,-3.93194 c -6.1259,-0.48879 -7.6164,-1.17179 -8.8017,-4.03346 -1.4203,-3.42886 -0.092,-7.74109 2.6529,-8.61228 2.0463,-0.64945 15.6454,-2.50482 18.7157,-2.55344 5.7624,-0.0912 -9.3502,-5.41597 -32.8032,-11.55781 l -13.8532,-3.62784 -2.6465,2.32739 c -1.4556,1.28006 -4.9779,4.46076 -7.8273,7.06821 l -5.1807,4.74082 13.1804,12.35717 c 7.2493,6.79645 15.1881,14.1771 17.6419,16.40144 l 4.4614,4.04426 8.9217,-8.14226 8.9218,-8.14225 z m -65.9991,-8.28851 8.9473,-8.05846 -8.1657,-7.75243 c -14.6209,-13.88102 -18.3523,-17.13065 -19.6702,-17.13065 -1.7477,0 -0.6843,16.3777 1.5583,24 2.0937,7.11623 6.484,17 7.5512,17 0.4575,0 4.8581,-3.62631 9.7791,-8.05846 z m -200.0151,-2.21242 c 1.6586,-2.89898 4.3414,-9.31148 5.9617,-14.25 5.2736,-16.07328 5.6972,-15.90222 -8.2975,-3.35077 -6.8932,6.18233 -12.5392,11.49508 -12.5467,11.80612 -0.011,0.45349 11.0483,10.88485 11.6902,11.02654 0.097,0.0214 1.5336,-2.33291 3.1923,-5.23189 z m -125.438,-10.09027 c 3.888,-2.94863 8.2877,-6.13803 9.7772,-7.08757 l 2.7081,-1.72642 -5.5742,-4.8779 -5.5743,-4.87789 -8.8465,8.11273 -8.8466,8.11272 4.2127,3.81173 c 2.317,2.09645 4.4066,3.83018 4.6436,3.85273 0.2371,0.0226 3.6121,-2.3715 7.5,-5.32013 z m 456.0691,0.36115 c 2.1482,-2.2 3.477,-4.00625 2.9529,-4.01388 -0.5241,-0.008 -4.5086,-3.15764 -8.8543,-7 -4.3458,-3.84237 -8.1708,-6.96825 -8.5,-6.94642 -0.3293,0.0218 -2.7367,2.00791 -5.3498,4.41349 l -4.7512,4.37379 5.2478,3.22902 c 2.8863,1.77596 7.2266,4.73989 9.645,6.58651 2.4184,1.84662 4.6911,3.35749 5.0504,3.35749 0.3593,0 2.4109,-1.8 4.5592,-4 z m -345.8677,-2.76771 c 2.1272,-2.07224 7.1849,-6.79724 11.2394,-10.5 4.0545,-3.70276 7.1217,-6.73229 6.8162,-6.73229 -1.3315,0 -35.185,7.16375 -35.5424,7.52113 -0.2182,0.21817 1.1223,1.64268 2.9789,3.16558 1.8566,1.5229 4.9506,4.40642 6.8756,6.40783 1.925,2.00141 3.5595,3.69889 3.6323,3.77219 0.073,0.0733 1.8728,-1.5622 4,-3.63444 z m 234.4819,-2.33124 c 3.2372,-2.80442 5.8858,-5.45193 5.8858,-5.88337 0,-0.97279 -1.7209,-1.46429 -15.5,-4.42685 -20.1896,-4.34085 -19.3636,-4.94388 -7.9931,5.83561 5.4962,5.21052 10.382,9.49615 10.8573,9.52362 0.4753,0.0275 3.5128,-2.24459 6.75,-5.04901 z m -356.0454,-8.50406 c 4.6371,-4.18166 8.5508,-7.91562 8.6971,-8.29769 0.1462,-0.38206 -1.0913,-1.9949 -2.75,-3.58407 -5.0742,-4.8614 -3.2969,-6.35678 2.3952,-2.01523 1.8027,1.375 3.6203,2.5 4.039,2.5 0.4188,0 4.0342,-3.0375 8.0342,-6.75 4.0001,-3.7125 11.7979,-10.575 17.3286,-15.25 5.5307,-4.675 10.0582,-8.95 10.0612,-9.5 0,-0.55 -7.6707,-7.525 -17.0527,-15.5 -9.3819,-7.975 -19.4689,-16.67269 -22.4155,-19.3282 l -5.3575,-4.82821 -12.2742,10.32821 c -6.7508,5.68051 -12.7242,10.41367 -13.2742,10.51813 -0.55,0.10446 -3.6696,2.69196 -6.9324,5.75 -5.5649,5.21566 -8.5676,6.82664 -8.5676,4.59652 0,-0.52995 2.5875,-3.12352 5.75,-5.76349 19.8618,-16.58015 31.25,-26.73597 31.25,-27.86838 0,-0.71654 -1.5342,-2.473 -3.4094,-3.90325 l -3.4094,-2.60045 -8.8406,3.42554 c -16.5067,6.39599 -63.3406,29.05111 -63.3406,30.63998 0,0.37498 14.5125,13.7632 32.25,29.7516 17.7375,15.9884 33.5717,30.46756 35.1871,32.17591 1.6154,1.70835 3.2213,3.10609 3.5688,3.10609 0.3475,0 4.4258,-3.42136 9.0629,-7.60301 z m -5.5688,-22.39699 c -0.3399,-0.55 0.057,-1 0.8819,-1 0.825,0 1.7782,0.45 2.1181,1 0.3399,0.55 -0.057,1 -0.882,1 -0.825,0 -1.7781,-0.45 -2.118,-1 z m 517,-4.56367 c 7.15,-6.6875 15.475,-14.3199 18.5,-16.9609 3.025,-2.64101 5.6222,-5.09512 5.7716,-5.45359 0.4077,-0.97823 -45.5437,-23.16376 -59.0196,-28.49488 -11.4972,-4.54838 -15.2552,-5.07407 -12.5506,-1.75567 0.7142,0.87628 6.84,6.20139 13.6128,11.83357 6.7728,5.63218 12.1728,10.61267 12,11.06774 -0.5017,1.32098 -1.2178,0.84395 -15.4056,-10.26231 -7.4145,-5.80408 -13.8748,-10.4083 -14.3563,-10.23159 -0.4815,0.17672 -8.6002,7.05903 -18.0415,15.29403 -9.4413,8.23501 -18.4727,15.88501 -20.0698,17 -1.597,1.115 -2.7996,2.30824 -2.6724,2.65166 0.1273,0.34341 6.5314,6.25407 14.2314,13.13481 7.7,6.88073 15.2789,13.86758 16.8419,15.52632 2.7757,2.9455 2.9084,2.9778 5.6855,1.38396 3.572,-2.05004 5.0321,-0.84805 1.976,1.62666 l -2.2799,1.84614 9.2382,8.16242 9.2381,8.16243 12.1501,-11.18586 c 6.6825,-6.15223 18.0001,-16.65745 25.1501,-23.34494 z m -12.5234,-20.36125 c -5.6119,-3.51642 -8.1001,-6.25733 -7.12,-7.84316 0.5339,-0.86384 2.2584,0.0228 5.8791,3.02284 4.6248,3.83199 6.8272,6.5156 6.0144,7.32844 -0.1633,0.16332 -2.3114,-0.96534 -4.7735,-2.50812 z m -83.7877,46.41766 c -0.2538,-2.1737 0.2116,-4.45508 1.2239,-6 2.4888,-3.79836 6.2982,-3.24416 13.7251,1.99674 10.2218,7.21312 9.093,7.0829 14.8432,1.71235 l 5.1283,-4.78975 -11.3047,-10.09062 c -6.2176,-5.54984 -14.1365,-12.53911 -17.5975,-15.53171 l -6.2927,-5.44109 -4.2073,4.09901 c -4.35,4.2381 -17.0678,15.46073 -19.0706,16.82856 -0.7462,0.50957 0.5811,2.33593 3.8634,5.31634 9.3005,8.44507 17.8835,15.40743 18.9937,15.40743 0.6741,0 0.9451,-1.36717 0.6952,-3.50726 z m -385.257,1.0893 c 2.1963,-2.64645 13.6961,-9.58204 15.8878,-9.58204 3.3203,0 6.1803,3.47071 6.1803,7.5 0,1.925 0.3881,3.5 0.8625,3.5 2.5445,0 23.6921,-19.86678 22.4299,-21.07141 -0.4358,-0.41593 -2.8707,-2.48252 -5.4107,-4.59242 -2.5401,-2.10989 -7.5841,-6.46241 -11.209,-9.67225 l -6.5906,-5.83608 -17.7911,15.29755 c -9.7851,8.41366 -17.9435,15.39241 -18.13,15.50834 -0.1864,0.11594 1.579,1.93327 3.923,4.03853 2.3441,2.10526 4.7466,4.37312 5.339,5.0397 1.4501,1.6318 3.0859,1.58467 4.5089,-0.12992 z m 366.245,-6.04116 c -2.2005,-1.98803 -5.1592,-4.52571 -6.5749,-5.63931 l -2.574,-2.02471 -3.5412,2.70102 c -1.9477,1.48556 -3.2873,2.955 -2.9769,3.26543 0.7161,0.71604 18.8733,5.96958 19.329,5.59257 0.1864,-0.15422 -1.4615,-1.90697 -3.662,-3.895 z m -310.6137,-1.71875 c 1.1348,-0.23568 0.5198,-1.3267 -2.2915,-4.06555 l -3.8426,-3.74341 -6.3044,6.361 -6.3045,6.36099 8.5961,-2.29544 c 4.7278,-1.2625 9.2939,-2.44041 10.1469,-2.61759 z m 293.2286,-5.10998 c 2.3145,-2.35832 4.2082,-4.55807 4.2082,-4.88834 0,-0.53521 -24.1179,-22.48981 -28.0839,-25.56492 -3.3775,-2.61876 -8.989,0.59886 -20.9398,12.00695 -6.2029,5.92121 -11.0976,10.91456 -10.8772,11.09634 0.2205,0.18178 8.2759,1.98836 17.9009,4.01463 9.625,2.02627 20.65,4.5298 24.5,5.56339 3.85,1.0336 7.4688,1.91988 8.0418,1.96953 0.5729,0.0497 2.9354,-1.83927 5.25,-4.19758 z m -263.5533,-1.71309 c 10.3062,-2.2188 20.781,-4.31413 23.2773,-4.65629 2.4963,-0.34216 4.7537,-0.96982 5.0163,-1.3948 0.4124,-0.66731 -10.5887,-11.27959 -24.1018,-23.24983 l -4.0697,-3.60502 -15.9303,14.42309 c -8.7617,7.9327 -15.9303,14.61409 -15.9303,14.84753 0,1.26421 10.2323,8.47835 11.5,8.10788 0.825,-0.2411 9.9323,-2.25376 20.2385,-4.47256 z m 296.4134,-28.06717 c -0.084,-0.31246 -4.1359,-4.21012 -9.0052,-8.66146 l -8.8532,-8.09336 -6.001,3.8786 c -6.5451,4.23034 -14.3196,7.43509 -22.0683,9.09689 l -4.9678,1.0654 2.8718,2.84906 c 1.5795,1.56698 7.5767,7.06759 13.3272,12.22358 l 10.4554,9.37452 12.1965,-10.58256 c 6.7081,-5.82041 12.1282,-10.83821 12.0446,-11.15067 z m -323.6519,13.38205 c 4.675,-4.21132 11.9591,-10.85889 16.1869,-14.77236 l 7.6869,-7.11541 -8.5437,-7.46309 c -4.6991,-4.10469 -10.0285,-8.71036 -11.8431,-10.23481 l -3.2994,-2.77172 -12.8438,11.17836 c -7.0641,6.14809 -14.4029,12.52891 -16.3084,14.1796 l -3.4647,3.00126 11.4647,10.81379 c 6.3055,5.94759 11.6896,10.81999 11.9646,10.82756 0.275,0.008 4.325,-3.43185 9,-7.64318 z m 61.644,-10.40797 c -0.5974,-13.34326 -3.4238,-24.15133 -7.3258,-28.01374 -1.7534,-1.73553 -2.1929,-1.47491 -12.3182,7.30466 -5.775,5.00742 -10.5871,9.37411 -10.6936,9.70376 -0.1065,0.32964 2.3685,2.72319 5.5,5.319 3.1315,2.59581 9.7436,8.67081 14.6936,13.5 10.875,10.60959 10.9658,10.53966 10.144,-7.81368 z m 37.9846,13.63814 c 9.4207,-0.84926 21.9082,-1.54411 27.75,-1.54411 h 10.6214 V 384.24453 228.60701 l -8.5362,0.69262 c -20.5832,1.67011 -45.4675,8.49903 -62.7732,17.22665 -9.5374,4.80986 -23.1015,14.77419 -31.1999,22.9197 -17.3692,17.4703 -29.088,39.17856 -35.065,64.95577 -2.4868,10.72501 -2.7839,13.91871 -2.8358,30.4803 -0.082,26.09998 3.0259,40.26314 14.0078,63.84096 7.1583,15.36856 16.0807,27.18343 38.1107,50.46505 12.4491,13.15636 15.8973,18.92234 19.3207,32.30803 1.4312,5.59583 1.9709,11.03925 1.9709,19.87925 0,6.69536 0.2309,12.40432 0.5132,12.68658 0.2822,0.28227 2.8697,0.15212 5.75,-0.28922 2.8802,-0.44133 12.9447,-1.49728 22.3654,-2.34654 z m 121.6563,-2.29411 c 1.9981,-7.12308 5.8133,-13.0934 10.3564,-16.20638 4.3573,-2.98572 16.3042,-6.47437 30.7784,-8.98777 25.1491,-4.36704 32.9495,-7.44144 38.5714,-15.2023 4.2323,-5.84257 4.71,-9.81795 2.1315,-17.74147 -2.4907,-7.654 -2.6887,-12.58216 -0.6475,-16.11208 4.002,-6.92067 3.9998,-6.90888 1.6937,-9.0573 -3.1029,-2.89079 -2.7519,-6.52286 0.9576,-9.91099 2.7003,-2.46636 3.0373,-3.31052 2.4728,-6.19363 -2.9098,-14.8619 -1.6927,-18.37902 7.9346,-22.92769 7.3508,-3.47309 8.593,-5.74872 6.0459,-11.07564 -0.877,-1.83411 -7.7109,-11.43475 -15.1864,-21.33475 -17.6939,-23.43235 -18.371,-24.87166 -18.3836,-39.07379 -0.013,-14.55054 -2.1842,-26.96054 -7.5619,-43.21794 -6.871,-20.77222 -13.3324,-30.63626 -27.7828,-42.41405 -12.9374,-10.54462 -39.3008,-22.03161 -60.1806,-26.22174 -9.8564,-1.97796 -30.3968,-4.57248 -36.1996,-4.57248 h -4.2911 l 0.2531,155.25 0.2532,155.25 5.5,0.22505 c 14.8722,0.60853 40.5228,2.55937 49,3.72664 5.225,0.71947 10.2137,1.36216 11.086,1.42821 1.1124,0.0842 2.0677,-1.59709 3.1989,-5.6299 z m 26.2151,-10.65637 3,-2.62951 -3,0.65984 c -4.0986,0.90146 -9.6431,3.76857 -11.7119,6.05623 -1.815,2.00712 -4.7881,8.47175 -4.7881,10.41126 0,0.63563 3.0375,-1.77471 6.75,-5.35631 3.7125,-3.58159 8.1,-7.69527 9.75,-9.14151 z m 92.4086,-17.02799 c 5.7247,-4.9861 14.2747,-12.33907 19,-16.33992 4.7252,-4.00086 8.5914,-7.63832 8.5914,-8.08325 0,-0.44494 -1.4887,-2.5045 -3.3082,-4.5768 -2.9139,-3.31869 -5.4171,-4.52004 -21,-10.0782 -27.4526,-9.79185 -25.9046,-9.49257 -29.3212,-5.66874 -3.2471,3.63414 -3.5225,6.08213 -1.3706,12.18127 2.3216,6.58034 1.9554,15.82604 -0.8356,21.09271 l -2.3356,4.40729 9.0856,8.64079 c 4.9971,4.75243 9.5356,8.38197 10.0856,8.06564 0.55,-0.31634 5.6838,-4.65469 11.4086,-9.64079 z m -371.7648,6.14681 c 2.0041,-1.76685 9.3262,-8.1164 16.2714,-14.11012 11.5628,-9.97885 12.4992,-11.0394 11.1061,-12.57874 -1.6955,-1.87349 -2.0151,-4.02359 -0.5981,-4.02359 0.5078,0 2.1953,1.05801 3.75,2.35115 1.5547,1.29313 3.4033,2.15094 4.108,1.90625 0.7047,-0.2447 1.1547,0.10027 1,0.76659 -0.1547,0.66632 5.2129,5.70736 11.9281,11.20231 l 12.2092,9.99082 10.7908,-9.32748 c 5.9348,-5.13011 10.9776,-9.45337 11.206,-9.60724 0.2284,-0.15386 -2.4716,-3.31904 -6,-7.03373 -3.5284,-3.71469 -8.377,-8.93358 -10.7746,-11.59755 l -4.3593,-4.84357 -3.6829,3.59622 c -2.0256,1.97793 -4.0014,3.59623 -4.3907,3.59623 -1.847,0 -0.3415,-2.80765 3.0178,-5.62803 l 3.7257,-3.12802 -4.5581,-5.37198 c -2.5069,-2.95458 -7.3165,-9.49196 -10.6879,-14.5275 l -6.1299,-9.15552 -11.7877,3.76182 c -34.8819,11.13188 -50.4908,17.19946 -54.7877,21.29745 -1.65,1.57361 -6.9734,6.09901 -11.8297,10.05644 l -8.8296,7.19534 3.8296,3.37302 c 2.1063,1.85516 10.1297,8.68774 17.8297,15.1835 7.7,6.49577 16.025,13.62122 18.5,15.83434 2.475,2.21313 4.725,4.02615 5,4.02895 0.275,0.003 2.1397,-1.44051 4.1438,-3.20736 z m 43.8562,-35.21245 c 0,-1.34354 0.633,-1.68295 2.6382,-1.41459 0.351,0.047 1.0015,-0.50249 1.4456,-1.22104 0.4441,-0.71855 1.0521,-1.06174 1.3512,-0.76264 0.6813,0.68122 -3.1705,4.89827 -4.474,4.89827 -0.5286,0 -0.961,-0.675 -0.961,-1.5 z m 427,16.12835 c 0,-0.2044 -4.5701,-4.3669 -10.1556,-9.25 -5.5856,-4.88309 -13.5163,-11.94265 -17.6237,-15.6879 -4.1074,-3.74526 -8.0644,-6.58067 -8.7934,-6.30093 -0.7873,0.30211 -1.1258,-0.0118 -0.8336,-0.77315 0.2834,-0.7386 -4.9293,-6.11918 -12.3009,-12.69711 -7.0361,-6.27843 -21.7928,-19.57376 -32.7928,-29.54517 -25.3534,-22.98261 -27.1514,-24.49078 -26.0782,-21.87409 1.5716,3.83155 1.8459,11.43937 0.5274,14.62264 -1.3467,3.25119 -8.9662,8.87736 -12.0226,8.87736 -3.3435,0 -3.9363,2.26914 -2.1235,8.12835 1.0591,3.42304 2.1822,5.37653 2.9449,5.12232 1.601,-0.53369 5.0179,2.15243 14.3931,11.31487 7.5839,7.41175 7.745,7.5043 21.5,12.34757 7.6224,2.68391 17.8119,6.51839 22.6434,8.52107 4.8314,2.00268 9.1805,3.39646 9.6645,3.09729 0.4841,-0.29916 1.0311,-0.11454 1.2156,0.41028 0.1844,0.52481 10.1904,5.26426 22.2354,10.5321 12.045,5.26784 23.07,10.45199 24.5,11.52034 2.7364,2.0444 3.1,2.23604 3.1,1.63416 z m -67.5,-15.62835 c -0.3399,-0.55 -1.2931,-1 -2.1181,-1 -0.825,0 -1.2218,0.45 -0.8819,1 0.3399,0.55 1.293,1 2.118,1 0.825,0 1.2219,-0.45 0.882,-1 z m -489.75,-12.01703 c 6.1875,-2.35864 11.25,-4.57838 11.25,-4.93275 0,-0.35438 -1.7794,-2.3818 -3.9541,-4.50537 l -3.9541,-3.86105 -4.2959,3.57795 c -2.3628,1.96787 -7.8959,7.00222 -12.2959,11.18743 l -8,7.60948 5,-2.39363 c 2.75,-1.31649 10.0625,-4.32342 16.25,-6.68206 z m 43.2002,1.26703 c 4.3167,-3.7125 7.738,-6.86833 7.6029,-7.01295 -0.1351,-0.14463 -2.6774,0.81087 -5.6494,2.12332 -2.9721,1.31245 -7.9912,3.20045 -11.1537,4.19557 -3.1625,0.99512 -5.75,2.13959 -5.75,2.54327 0,0.85958 5.1285,4.82273 6.3008,4.86911 0.4405,0.0174 4.3327,-3.00582 8.6494,-6.71832 z m -13.299,-12.84131 c 6.5168,-2.52521 18.8238,-7.00236 27.3488,-9.94921 8.525,-2.94685 17.0855,-5.94326 19.0233,-6.6587 1.9378,-0.71543 6.7975,-4.00078 10.7993,-7.30078 4.0017,-3.3 7.7037,-6.15 8.2266,-6.33334 1.9225,-0.67403 0.8721,2.30632 -1.7992,5.10498 l -2.75,2.88107 3,-0.72485 c 9.977,-2.41061 24.335,-7.07829 24.3864,-7.92786 0.033,-0.55 -1.9651,-7.19806 -4.4409,-14.77345 -4.9723,-15.21402 -7.4307,-28.91967 -7.4396,-41.47655 0,-4.5375 -0.4184,-8.25 -0.9226,-8.25 -0.5042,0 -1.0667,0.34097 -1.25,0.75772 -0.1833,0.41675 -4.6083,4.5542 -9.8333,9.19433 -5.225,4.64013 -25.475,23.11565 -45,41.05671 -19.525,17.94106 -37.2964,34.24071 -39.492,36.22145 l -3.9919,3.60133 2.9724,2.33423 c 1.6348,1.28383 4.1062,3.33251 5.4919,4.55263 1.3858,1.22012 2.8126,2.23262 3.1708,2.25 0.3582,0.0174 5.9832,-2.03449 12.5,-4.55971 z m 415.0812,-9.69807 c -3.7221,-3.41584 -6.7596,-6.77312 -6.75,-7.46062 0.035,-2.46942 -1.5511,-1.19115 -1.7676,1.42487 -0.1218,1.47118 -0.9024,3.42737 -1.7347,4.34709 -1.3896,1.53551 -1.0011,1.81227 4.7533,3.38562 3.4466,0.94238 7.3916,2.34524 8.7666,3.11748 4.2634,2.39445 3.7277,1.60518 -3.2676,-4.81444 z m -554.9114,105.26421 c -2.425,-2.42496 -2.8973,-3.56579 -2.3805,-5.75 0.9611,-4.0618 4.3576,-6.51521 8.0087,-5.78498 3.8529,0.77058 5.3475,2.2936 6.1402,6.25725 0.5134,2.56693 0.1456,3.65875 -1.9322,5.73661 -3.3697,3.36964 -6.1368,3.24055 -9.8362,-0.45888 z m 734.6335,0.57062 c -2.8319,-2.83195 -3.0303,-4.5314 -0.9894,-8.47794 3.2289,-6.24414 11.7197,-4.04804 12.3399,3.19164 0.5847,6.82663 -6.5072,10.12959 -11.3505,5.2863 z m -713.2326,-90.79545 c -1.4093,-1.72202 5.0653,-9.2375 7.2394,-8.40323 2.2307,0.856 1.9338,1.71805 -2.033,5.90323 -4.0414,4.26391 -3.8414,4.1679 -5.2064,2.5 z m 679.2725,-11.75574 c -3.4115,-3.49368 -3.7251,-4.18687 -2.453,-5.42277 1.2645,-1.22853 2.0389,-0.89708 5.8211,2.49142 2.8012,2.50972 4.1545,4.4504 3.7813,5.42278 -0.9485,2.47188 -3.0015,1.75648 -7.1494,-2.49143 z m -663.0624,-5.10416 c -1.0985,-1.77749 7.8244,-10.11268 9.9518,-9.29631 1.5103,0.57956 1.0652,1.39691 -3.0186,5.543 -5.0462,5.12323 -5.8257,5.54523 -6.9332,3.75331 z m 642.4246,-14.77576 c -4.0504,-3.7456 -5.078,-5.23957 -4.214,-6.12657 1.4951,-1.53493 3.7454,-0.29388 8.6534,4.7724 3.2036,3.30689 3.5714,4.10494 2.3567,5.11309 -1.1706,0.97148 -2.4399,0.2694 -6.7961,-3.75892 z m -623.7832,-2.52583 c -1.0507,-1.26609 -0.5157,-2.29255 3.2838,-6.30051 4.0901,-4.31432 4.6928,-4.63598 6.0919,-3.25134 1.4013,1.38677 1.081,2.00133 -3.2838,6.30051 -4.1829,4.11996 -5.0063,4.55942 -6.0919,3.25134 z m 601.9306,-18.08437 c -3.2752,-3.33719 -4.1216,-4.78655 -3.2844,-5.62379 1.7177,-1.71769 11.7011,6.90779 10.1535,8.77248 -1.6327,1.96731 -2.0242,1.78784 -6.8691,-3.14869 z m -583.9528,0.0576 c -0.9711,-1.1701 -0.412,-2.14898 2.9986,-5.25 5.1075,-4.64397 5.7755,-4.93054 6.5837,-2.82434 0.4256,1.10911 -0.629,2.94773 -3.2024,5.58315 -4.2779,4.381 -4.6809,4.53835 -6.3799,2.49119 z m 562.9631,-20.04709 c -3.4443,-3.50952 -4.1567,-4.77229 -3.2204,-5.70855 0.9362,-0.93626 2.0275,-0.43946 4.9333,2.24585 4.5831,4.23533 5.3219,5.18956 4.944,6.38556 -0.6735,2.13146 -2.471,1.34224 -6.6569,-2.92286 z m -544.8203,2.27934 c -0.9414,-0.94136 -0.2813,-2.14833 3.0082,-5.5 4.2791,-4.36008 6.1387,-5.16932 7.3554,-3.20071 0.6051,0.97912 -7.1141,9.90673 -8.5658,9.90673 -0.3255,0 -1.1345,-0.54271 -1.7978,-1.20602 z m 18.2468,-17.88967 c -0.3724,-0.60263 1.497,-3.30306 4.1544,-6.00095 4.2916,-4.35714 4.9988,-4.73788 6.3293,-3.40738 1.3305,1.33051 1.0041,2.00106 -2.9215,6.00095 -4.4736,4.55827 -6.3331,5.3961 -7.5622,3.40738 z m 505.1473,-3.81405 c -3.5807,-3.667 -4.071,-6.09026 -1.2321,-6.09026 1.9002,0 8.9631,7.67455 8.1998,8.90973 -1.1948,1.93309 -3.0665,1.17567 -6.9677,-2.81947 z m -485.3381,-13.82033 c -2.0291,-0.70873 -1.4809,-1.95361 2.7701,-6.29053 2.9755,-3.03556 4.5347,-3.93809 6,-3.47301 1.0889,0.34561 1.9799,1.00615 1.9799,1.46787 0,1.46321 -9.4447,8.7516 -10.75,8.29567 z m 465.9097,-4.60723 c -3.5305,-3.59732 -4.0172,-4.53615 -2.8523,-5.50288 2.0639,-1.71292 11.2929,6.41188 9.6001,8.45156 -1.6657,2.00712 -2.048,1.84007 -6.7478,-2.94868 z m -446.9675,-14.87048 c -0.9437,-0.94369 -0.1757,-2.25559 3.5124,-6 4.542,-4.61129 8.2954,-6.19704 8.2954,-3.50464 0,1.20257 -8.9523,10.71241 -10.0844,10.71241 -0.2836,0 -1.0591,-0.5435 -1.7234,-1.20777 z m 427.3603,-4.73887 c -4.426,-4.49365 -5.2251,-7.05336 -2.2017,-7.05336 0.678,0 3.0988,1.9125 5.3794,4.25 3.5698,3.65873 3.9703,4.48757 2.8789,5.95767 -1.1475,1.54571 -1.7219,1.24657 -6.0566,-3.15431 z m -405.5412,-15.53973 c -1.1626,-1.40087 -0.6977,-2.26333 3.5384,-6.56415 4.3535,-4.41991 5.0393,-4.78899 6.3898,-3.43852 1.3505,1.35046 0.9707,2.05503 -3.5384,6.56414 -4.515,4.51492 -5.1935,4.88004 -6.3898,3.43853 z m 385.7352,-3.4448 c -4.1893,-4.24617 -4.5676,-4.97241 -3.1875,-6.1178 1.3386,-1.11094 2.2432,-0.62249 6.229,3.36336 4.1004,4.10039 4.485,4.83859 3.1875,6.11781 -1.2946,1.27634 -2.0585,0.86383 -6.229,-3.36337 z m -19.5868,-18.40612 c -3.6853,-3.755 -4.054,-4.50557 -2.7464,-5.5908 1.2614,-1.04682 2.2473,-0.56281 5.9795,2.9353 2.6288,2.46386 4.2476,4.76616 3.9312,5.5908 -0.8999,2.34515 -2.7097,1.60369 -7.1643,-2.9353 z m -345.9393,2.08729 c -1.4347,-1.75055 6.9519,-11.00484 9.1935,-10.14467 2.2396,0.85943 2.067,1.31852 -2.4982,6.64467 -4.3452,5.06949 -5.0899,5.45881 -6.6953,3.5 z m 327.4415,-20.58564 c -4.2621,-4.32711 -4.5933,-4.97641 -3.1499,-6.17432 1.4002,-1.16211 2.2172,-0.7345 6.1935,3.24179 3.0412,3.04122 4.3749,5.11609 3.9689,6.17433 -0.931,2.42594 -1.8472,2.00236 -7.0125,-3.2418 z m -306.3169,0.29251 c -0.3256,-0.84872 -0.4156,-1.63622 -0.2,-1.75 0.2157,-0.11378 2.4879,-2.18032 5.0494,-4.59231 3.3052,-3.11231 5.1662,-4.19014 6.4104,-3.7127 1.4723,0.56495 0.8888,1.54802 -3.6417,6.13544 -5.7787,5.85146 -6.6957,6.32323 -7.6181,3.91957 z m 284.3448,-22.0706 c -5.0214,-3.91215 -5.144,-4.11993 -3.7401,-6.33915 0.7439,-1.17596 1.8637,-0.60419 5.8755,3 2.726,2.44908 4.8649,4.87475 4.7531,5.39038 -0.4403,2.03025 -2.398,1.4473 -6.8885,-2.05123 z m -262.4226,1.80005 c -0.8582,-0.54514 0.5821,-2.57894 4.7406,-6.69408 4.6933,-4.64432 6.2343,-5.65016 7.1907,-4.69367 0.9565,0.95649 0.055,2.39429 -4.2064,6.7094 -5.7747,5.84732 -5.8309,5.88139 -7.7249,4.67835 z m 21.1736,-20.28201 c -0.3724,-0.60263 1.4625,-3.26803 4.0777,-5.92312 4.0792,-4.14146 5.0174,-4.66342 6.603,-3.67324 1.7049,1.06474 1.4841,1.52373 -2.8491,5.92311 -4.7387,4.81097 -6.5914,5.67995 -7.8316,3.67325 z m 218.7008,-4.72377 c -4.5961,-4.0793 -5.1447,-4.93309 -3.8566,-6.0021 1.2523,-1.03936 2.378,-0.44051 6.7793,3.60648 3.2285,2.96864 4.9942,5.31138 4.5476,6.03393 -1.1029,1.78458 -1.6733,1.50676 -7.4703,-3.63831 z m -198.1314,-13.66818 c -1.12,-1.34952 -0.8844,-2.03725 1.5873,-4.63457 3.9775,-4.17957 5.9432,-5.13614 7.2697,-3.53775 0.8166,0.98387 0.034,2.32162 -3.2323,5.5275 -3.8287,3.75764 -4.4562,4.0527 -5.6247,2.64482 z m 174.7771,-9.26236 c -3.6483,-3.73676 -4.3676,-4.99318 -3.3724,-5.88999 0.9744,-0.87802 2.491,-0.0592 6.5996,3.56318 3.2981,2.90779 5.0544,5.15621 4.6009,5.88998 -1.2997,2.10296 -3.0932,1.28658 -7.8281,-3.56317 z m -157.7873,-7.23774 c -1.239,-0.79054 -0.7712,-1.68821 2.6883,-5.15831 3.6247,-3.63583 4.4047,-4.02164 5.7961,-2.86691 1.442,1.19679 1.2213,1.72997 -2.1413,5.17363 -4.1075,4.20645 -4.1734,4.23606 -6.3431,2.85159 z m 136.9009,-13.82871 c -4.9689,-4.61703 -5.1623,-4.97331 -3.2537,-5.99476 1.753,-0.93818 2.6706,-0.43481 6.7415,3.69824 3.9922,4.05313 4.4894,4.96922 3.2537,5.99476 -1.1959,0.99249 -2.4101,0.32637 -6.7415,-3.69824 z m -119.6571,-3.01263 c -0.9201,-0.5835 -0.2947,-1.91972 2.3382,-4.99577 4.5513,-5.31712 6.8166,-6.60472 8.3561,-4.74966 0.9121,1.099 0.1983,2.27701 -3.4717,5.72899 -5.2778,4.96432 -5.5176,5.09765 -7.2226,4.01644 z m 96.8937,-19.19762 c -4.2087,-3.80559 -5.0614,-6.9733 -1.8771,-6.9733 1.9716,0 10.0801,8.64006 9.2972,9.90672 -1.146,1.85428 -2.8861,1.16636 -7.4201,-2.93342 z m -77.0048,-0.31334 c -0.8169,-0.98436 -0.01,-2.34739 3.3477,-5.64073 3.8081,-3.73741 4.6465,-4.15875 6.0152,-3.02289 1.4223,1.18046 1.2425,1.68138 -1.7027,4.74382 -4.392,4.56684 -6.3091,5.5478 -7.6602,3.9198 z"
       id="path3" />
    <text
       xml:space="preserve"
       id="text3"
       style="font-size:96px;white-space:pre;shape-inside:url(#rect3);display:inline;fill:#000000;fill-opacity:1"
       transform="matrix(3.474609,0,0,3.474609,-3028.615,-260.08595)"><tspan
         x="224.83008"
         y="259.27316"
         id="tspan2">  SIMHIT</tspan></text>
  </g>
</svg>
